<svg width="198" height="125" viewBox="0 0 198 125" fill="none" xmlns="http://www.w3.org/2000/svg">
<path d="M192.586 83.8489C191.548 85.3265 190.262 86.4264 188.867 87.2805H188.865C188.734 87.3617 188.602 87.4408 188.469 87.5154H188.467L188.466 87.5176L188.464 87.5154H188.462L188.462 87.5163L188.462 87.517L188.461 87.5175L188.461 87.5176H188.459L188.457 87.5154C188.456 87.5176 188.456 87.5176 188.454 87.5154L188.452 87.5176L188.451 87.5154H188.449C188.447 87.5176 188.447 87.5176 188.446 87.5154H188.444C187.51 88.0424 186.55 88.4897 185.572 88.8547C179.817 90.9837 173.769 91.3957 167.875 90.0601C167.762 90.0337 167.651 90.0074 167.538 89.981V72.173C167.65 72.1116 167.762 72.0501 167.875 71.9908C168.611 71.5934 169.356 71.2282 170.109 70.8952C171.194 70.4122 172.293 69.998 173.408 69.6526C177.044 68.5049 180.796 68.1092 184.526 68.4801C185.205 68.546 185.881 68.6412 186.557 68.7656C187.969 69.0225 189.451 69.4703 190.754 70.2476H190.755C190.946 70.3639 191.133 70.4847 191.318 70.6142C192.476 71.4332 193.453 72.5595 194.049 74.1029C194.263 74.6572 194.417 75.2476 194.507 75.8572V75.8615C194.54 76.0723 194.564 76.2853 194.582 76.4961C194.795 79.0956 193.968 81.8773 192.586 83.8489Z" fill="#F2F2F2"/>
<path d="M194.456 76.1703C194.439 76.1756 194.422 76.1785 194.405 76.179C191.535 76.3415 188.668 76.5827 185.806 76.9027H185.801C185.789 76.9049 185.779 76.9049 185.767 76.907C182.828 77.2364 179.895 77.6488 176.968 78.1443C176.844 78.166 176.721 78.1876 176.599 78.2071C174.575 78.556 172.555 78.9431 170.538 79.3686C169.648 79.5571 168.76 79.7535 167.874 79.9579C167.761 79.9839 167.651 80.0078 167.538 80.036V79.3794C167.651 79.3512 167.763 79.3274 167.874 79.3014C170.826 78.6253 173.789 78.0352 176.762 77.5311C177.509 77.4011 178.258 77.2783 179.007 77.1627C181.172 76.8247 183.341 76.5329 185.512 76.2873C185.672 76.27 185.829 76.2526 185.988 76.2353C188.768 75.9298 191.552 75.6979 194.34 75.5398C194.354 75.539 194.367 75.5404 194.38 75.5441C194.648 75.5744 194.705 76.0945 194.456 76.1703Z" fill="white"/>
<path d="M188.426 86.5892C184.959 86.6232 181.543 84.6644 179.091 81.4223C178.399 80.504 177.789 79.4819 177.274 78.3766C177.109 78.0234 176.722 78.4129 176.886 78.7631C178.79 82.8327 181.963 85.7318 185.461 86.7978C186.454 87.0976 187.47 87.2425 188.489 87.2294C188.8 87.2264 188.735 86.5862 188.426 86.5892Z" fill="white"/>
<path d="M173.462 69.2446C173.446 69.3134 173.418 69.3751 173.381 69.4237C173.344 69.4722 173.298 69.5058 173.249 69.5211C172.418 69.8347 171.615 70.2864 170.857 70.867C169.749 71.7095 168.743 72.8044 167.878 74.1093C167.832 74.1754 167.788 74.2414 167.746 74.31C167.674 74.4176 167.606 74.5277 167.538 74.6403V73.5734C167.647 73.407 167.761 73.2431 167.878 73.0865C168.561 72.1446 169.318 71.3202 170.133 70.6296C171.227 70.0913 172.337 69.6296 173.462 69.2446Z" fill="white"/>
<path d="M190.886 70.1704C188.559 71.3638 186.611 73.4122 185.327 76.0174C185.301 76.0919 185.301 76.1757 185.326 76.2505C185.352 76.3253 185.401 76.3852 185.463 76.417C185.526 76.4465 185.596 76.4462 185.658 76.416C185.72 76.3858 185.771 76.3281 185.798 76.2549C187.024 73.7943 188.873 71.8617 191.078 70.7356C191.381 70.5813 191.189 70.0158 190.886 70.1704Z" fill="white"/>
<path d="M197.743 50.6674C197.355 52.6295 196.61 54.4069 195.686 56.0287L195.684 56.0309C195.598 56.1822 195.51 56.3357 195.418 56.4825V56.4847C194.776 57.5369 194.082 58.532 193.342 59.4635C190.682 62.8357 187.676 65.6913 184.415 67.9459C179.285 71.5097 173.552 73.6164 167.873 73.7366C167.83 73.7388 167.786 73.7388 167.743 73.7388C167.674 73.741 167.605 73.741 167.538 73.741V63.6302C167.647 63.3543 167.759 63.0785 167.873 62.8048C169.349 59.2732 171.148 55.9987 173.23 53.0566C173.281 52.9832 173.332 52.9098 173.384 52.8386C174.167 51.7396 174.988 50.6933 175.846 49.6997C179.15 45.8369 182.967 42.8301 187.102 40.8346C188.435 40.1983 189.897 39.6889 191.318 39.5888C191.527 39.5732 191.735 39.5666 191.944 39.5688C193.254 39.5932 194.51 40.0048 195.582 41.0237C195.966 41.3904 196.31 41.8253 196.605 42.3162C196.709 42.4875 196.805 42.6632 196.896 42.8434V42.8456C198.004 45.048 198.261 48.049 197.743 50.6674Z" fill="#F2F2F2"/>
<path d="M197.081 42.8299V42.8322C197.068 42.8468 197.055 42.8598 197.041 42.8708C194.549 44.8268 192.09 46.854 189.662 48.9524C189.658 48.9546 189.657 48.9569 189.653 48.9592C189.644 48.9683 189.633 48.9767 189.623 48.9842C187.127 51.1424 184.666 53.3733 182.241 55.6768C182.14 55.7723 182.037 55.8699 181.934 55.9676C180.26 57.5647 178.602 59.1958 176.962 60.8611C173.865 64.0098 170.836 67.2751 167.875 70.657C167.762 70.7842 167.651 70.9137 167.538 71.0432V70.1595C167.65 70.03 167.762 69.9005 167.875 69.7733C169.01 68.4806 170.154 67.2062 171.309 65.9499C171.654 65.575 172 65.2002 172.347 64.8299C175.427 61.5199 178.577 58.3333 181.795 55.2702H181.796C182.429 54.6682 183.063 54.0714 183.698 53.48C185.503 51.8034 187.327 50.167 189.172 48.5707C189.305 48.4548 189.439 48.339 189.574 48.2231C191.936 46.1876 194.328 44.2187 196.751 42.3165C196.763 42.3068 196.775 42.2984 196.788 42.2915C197.041 42.1552 197.278 42.605 197.081 42.8299Z" fill="white"/>
<path d="M195.069 56.1232C191.993 58.0488 188.265 58.3846 184.944 57.1869C184.006 56.8462 183.105 56.3792 182.258 55.7952C181.987 55.6089 181.78 56.126 182.048 56.3107C185.171 58.457 189.013 58.9914 192.501 57.9109C193.491 57.6019 194.446 57.1589 195.349 56.5908C195.624 56.4181 195.343 55.9517 195.069 56.1232Z" fill="white"/>
<path d="M171.944 64.4634C171.79 63.3122 171.738 62.141 171.787 60.9735C171.898 58.3109 172.51 55.7283 173.566 53.4633C174.34 52.3772 175.149 51.3427 175.996 50.3597C176.004 50.424 175.999 50.49 175.982 50.5511C175.966 50.6122 175.937 50.6664 175.899 50.7083C175.283 51.4575 174.734 52.2994 174.264 53.217C172.582 56.4872 171.926 60.5033 172.435 64.409C172.443 64.4533 172.442 64.4997 172.433 64.5437C172.424 64.5877 172.407 64.6279 172.383 64.6604C172.348 64.7013 172.305 64.7293 172.259 64.7414C172.213 64.7535 172.166 64.7494 172.121 64.7295C172.077 64.7096 172.037 64.6746 172.006 64.6279C171.975 64.5812 171.954 64.5245 171.944 64.4634Z" fill="white"/>
<path d="M191.585 39.6827C189.84 42.1229 188.826 45.1314 188.692 48.2705C188.699 48.3541 188.734 48.4314 188.791 48.4857C188.847 48.5399 188.92 48.5667 188.994 48.5602C189.067 48.5513 189.135 48.5108 189.182 48.447C189.23 48.3833 189.254 48.3012 189.249 48.2179C189.389 45.2457 190.356 42.4004 192.012 40.0924C192.24 39.7759 191.813 39.3656 191.585 39.6827Z" fill="white"/>
<path d="M174.259 46.8333V46.8355C174.247 47.0281 174.233 47.2184 174.218 47.4087V47.4132C174.101 48.768 173.917 50.1112 173.669 51.4346C173.551 52.084 173.423 52.7288 173.283 53.3737C173.266 53.4566 173.247 53.5394 173.229 53.62V53.6223C172.817 55.4978 172.324 57.3406 171.754 59.1417C170.704 62.4577 169.405 65.6249 167.876 68.5952C167.766 68.8124 167.653 69.0296 167.538 69.2445V34.18C167.652 34.1711 167.763 34.1711 167.876 34.1755C167.93 34.1755 167.984 34.1778 168.038 34.1823C168.514 34.2155 168.985 34.3368 169.436 34.5428C169.595 34.6122 169.748 34.6906 169.9 34.7779C171.742 35.8482 173.188 38.2082 173.816 40.8033C174.287 42.7469 174.382 44.7912 174.259 46.8333Z" fill="#F2F2F2"/>
<path d="M170.066 34.5806C170.062 34.6043 170.055 34.627 170.046 34.6482C169.315 36.5468 168.599 38.455 167.9 40.3729C167.779 40.7034 167.658 41.0363 167.538 41.3669V39.7264C167.658 39.3983 167.778 39.0702 167.9 38.7421C168.44 37.2802 168.989 35.8247 169.548 34.3756C169.554 34.3587 169.561 34.3425 169.57 34.3273C169.736 34.0089 170.148 34.226 170.066 34.5806Z" fill="white"/>
<path d="M174.275 47.1801C174.245 47.2486 174.215 47.3171 174.181 47.3856C173.688 48.4806 173.101 49.5026 172.432 50.4328C171.146 52.2115 169.597 53.6492 167.874 54.6635C167.763 54.732 167.651 54.7962 167.538 54.8561V54.1606C167.651 54.0964 167.763 54.0301 167.874 53.9616C170.368 52.4453 172.439 49.9951 173.812 46.9383C173.832 46.8947 173.859 46.857 173.891 46.8277C173.923 46.7985 173.96 46.7785 173.999 46.7689C174.037 46.7594 174.077 46.7606 174.116 46.7725C174.154 46.7843 174.19 46.8066 174.221 46.8378C174.243 46.8557 174.261 46.8788 174.275 46.9058C174.289 46.9327 174.299 46.963 174.304 46.9948C174.309 47.0266 174.309 47.0593 174.304 47.0911C174.299 47.1229 174.289 47.1532 174.275 47.1801Z" fill="white"/>
<path d="M168.385 7.351V24.2806H168.05V24.1001H56.1805V24.2806H55.8461V7.351C55.8475 5.40198 56.4293 3.53334 57.4639 2.15517C58.4985 0.777005 59.9012 0.00191313 61.3643 0H162.866C164.329 0.00191313 165.732 0.777005 166.767 2.15517C167.801 3.53334 168.383 5.40198 168.385 7.351Z" fill="#F08E2D"/>
<path d="M162.866 0H61.3643C59.9012 0.00189995 58.4985 0.771652 57.4639 2.14032C56.4293 3.50899 55.8475 5.36477 55.8461 7.30036V103.311C55.8475 105.247 56.4293 107.103 57.4639 108.471C58.4985 109.84 59.9012 110.61 61.3643 110.612H162.866C164.329 110.61 165.732 109.84 166.767 108.471C167.801 107.103 168.383 105.247 168.385 103.311V7.30036C168.383 5.36477 167.801 3.50899 166.767 2.14032C165.732 0.771652 164.329 0.00189995 162.866 0ZM168.05 103.311C168.048 105.129 167.502 106.872 166.53 108.158C165.558 109.443 164.241 110.167 162.866 110.169H61.3643C59.99 110.167 58.6725 109.443 57.7007 108.158C56.729 106.872 56.1823 105.129 56.1805 103.311V7.30036C56.1823 5.48224 56.729 3.73925 57.7007 2.45365C58.6725 1.16804 59.99 0.444766 61.3643 0.442446H162.866C164.241 0.444766 165.558 1.16804 166.53 2.45365C167.502 3.73925 168.048 5.48224 168.05 7.30036V103.311Z" fill="#3F3D56"/>
<path d="M78.6924 16.187C80.5616 16.187 82.077 14.1739 82.077 11.6906C82.077 9.20732 80.5616 7.19421 78.6924 7.19421C76.8231 7.19421 75.3077 9.20732 75.3077 11.6906C75.3077 14.1739 76.8231 16.187 78.6924 16.187Z" fill="white"/>
<path d="M145.539 16.187C147.408 16.187 148.923 14.1739 148.923 11.6906C148.923 9.20732 147.408 7.19421 145.539 7.19421C143.669 7.19421 142.154 9.20732 142.154 11.6906C142.154 14.1739 143.669 16.187 145.539 16.187Z" fill="white"/>
<path d="M88.2083 61.1511H68.3303C67.4882 61.1499 66.6808 60.7099 66.0853 59.9278C65.4898 59.1457 65.1549 58.0853 65.1539 56.9792V44.6395C65.1549 43.5335 65.4898 42.4731 66.0853 41.6909C66.6808 40.9088 67.4882 40.4689 68.3303 40.4677H88.2083C89.0505 40.4689 89.8578 40.9088 90.4533 41.6909C91.0488 42.4731 91.3837 43.5335 91.3847 44.6395V56.9792C91.3837 58.0853 91.0488 59.1457 90.4533 59.9278C89.8578 60.7099 89.0505 61.1499 88.2083 61.1511Z" fill="#F08E2D"/>
<path d="M122.054 61.1511H102.176C101.334 61.1499 100.527 60.7099 99.9314 59.9278C99.3359 59.1457 99.001 58.0853 99 56.9792V44.6395C99.001 43.5335 99.3359 42.4731 99.9314 41.6909C100.527 40.9088 101.334 40.4689 102.176 40.4677H122.054C122.897 40.4689 123.704 40.9088 124.299 41.6909C124.895 42.4731 125.23 43.5335 125.231 44.6395V56.9792C125.23 58.0853 124.895 59.1457 124.299 59.9278C123.704 60.7099 122.897 61.1499 122.054 61.1511Z" fill="#F08E2D"/>
<path d="M121.982 93.5251H102.249C101.387 93.5239 100.562 93.0761 99.9526 92.28C99.3436 91.4839 99.001 90.4046 99 89.2788V77.088C99.001 75.9622 99.3436 74.8829 99.9526 74.0868C100.562 73.2907 101.387 72.8429 102.249 72.8417H121.982C122.843 72.8429 123.669 73.2907 124.278 74.0868C124.887 74.8829 125.23 75.9622 125.231 77.088V89.2788C125.23 90.4046 124.887 91.4839 124.278 92.28C123.669 93.0761 122.843 93.5239 121.982 93.5251Z" fill="#F2F2F2"/>
<path d="M88.1359 93.5251H68.4027C67.5414 93.5239 66.7156 93.0761 66.1065 92.28C65.4975 91.4839 65.1549 90.4046 65.1539 89.2788V77.088C65.1549 75.9622 65.4975 74.8829 66.1065 74.0868C66.7156 73.2907 67.5414 72.8429 68.4027 72.8417H88.1359C88.9973 72.8429 89.823 73.2907 90.4321 74.0868C91.0411 74.8829 91.3837 75.9622 91.3847 77.088V89.2788C91.3837 90.4046 91.0411 91.4839 90.4321 92.28C89.823 93.0761 88.9973 93.5239 88.1359 93.5251Z" fill="#F2F2F2"/>
<path d="M155.828 93.5251H136.095C135.234 93.5239 134.408 93.0761 133.799 92.28C133.19 91.4839 132.847 90.4046 132.846 89.2788V77.088C132.847 75.9622 133.19 74.8829 133.799 74.0868C134.408 73.2907 135.234 72.8429 136.095 72.8417H155.828C156.689 72.8429 157.515 73.2907 158.124 74.0868C158.733 74.8829 159.076 75.9622 159.077 77.088V89.2788C159.076 90.4046 158.733 91.4839 158.124 92.28C157.515 93.0761 156.689 93.5239 155.828 93.5251Z" fill="#F2F2F2"/>
<path d="M155.828 61.1511H136.095C135.234 61.1498 134.408 60.702 133.799 59.906C133.19 59.1099 132.847 58.0306 132.846 56.9047V44.714C132.847 43.5882 133.19 42.5089 133.799 41.7128C134.408 40.9167 135.234 40.4689 136.095 40.4677H155.828C156.689 40.4689 157.515 40.9167 158.124 41.7128C158.733 42.5089 159.076 43.5882 159.077 44.714V56.9047C159.076 58.0306 158.733 59.1099 158.124 59.906C157.515 60.7021 156.689 61.1498 155.828 61.1511Z" fill="#F2F2F2"/>
<path d="M78.2692 58.4532C81.3067 58.4532 83.7692 55.2322 83.7692 51.2589C83.7692 47.2857 81.3067 44.0647 78.2692 44.0647C75.2316 44.0647 72.7692 47.2857 72.7692 51.2589C72.7692 55.2322 75.2316 58.4532 78.2692 58.4532Z" fill="white"/>
<path d="M77.8103 53.9568C77.7005 53.9571 77.5937 53.9055 77.5059 53.8098L77.5004 53.8038L76.3539 52.5273C76.3007 52.4682 76.2561 52.3944 76.2225 52.3102C76.189 52.226 76.1672 52.1329 76.1584 52.0364C76.1496 51.94 76.1539 51.8419 76.1712 51.7478C76.1884 51.6538 76.2183 51.5656 76.259 51.4884C76.2997 51.4111 76.3505 51.3463 76.4084 51.2976C76.4664 51.2489 76.5303 51.2172 76.5967 51.2045C76.6631 51.1918 76.7305 51.1982 76.7952 51.2234C76.8598 51.2486 76.9204 51.2921 76.9735 51.3513L77.7161 52.1794L79.4711 48.8512C79.5118 48.774 79.5625 48.7092 79.6204 48.6605C79.6784 48.6119 79.7423 48.5803 79.8086 48.5675C79.8749 48.5548 79.9423 48.5612 80.0069 48.5863C80.0716 48.6115 80.1321 48.6549 80.1852 48.7141L80.1743 48.7356L80.1855 48.7144C80.2926 48.8341 80.3626 49.0106 80.3803 49.2053C80.398 49.4 80.3618 49.597 80.2798 49.7529L78.2155 53.6678C78.1678 53.758 78.1064 53.831 78.0361 53.8811C77.9659 53.9312 77.8886 53.9572 77.8103 53.9568Z" fill="#F08E2D"/>
<path d="M112.115 57.5539C115.153 57.5539 117.615 54.5342 117.615 50.8093C117.615 47.0844 115.153 44.0647 112.115 44.0647C109.078 44.0647 106.615 47.0844 106.615 50.8093C106.615 54.5342 109.078 57.5539 112.115 57.5539Z" fill="white"/>
<path d="M111.656 53.9568C111.546 53.9571 111.44 53.9055 111.352 53.8098L111.346 53.8038L110.2 52.5273C110.092 52.4078 110.022 52.2313 110.005 52.0365C109.987 51.8418 110.023 51.6448 110.105 51.4888C110.187 51.3329 110.309 51.2308 110.443 51.205C110.577 51.1792 110.712 51.2319 110.819 51.3514L111.562 52.1794L113.317 48.8512C113.358 48.774 113.409 48.7092 113.467 48.6605C113.524 48.6119 113.588 48.5803 113.655 48.5675C113.721 48.5548 113.788 48.5612 113.853 48.5863C113.918 48.6115 113.978 48.6549 114.031 48.7141L114.02 48.7356L114.032 48.7144C114.139 48.8341 114.209 49.0106 114.227 49.2053C114.244 49.4 114.208 49.597 114.126 49.7529L112.062 53.6678C112.014 53.758 111.952 53.831 111.882 53.8811C111.812 53.9312 111.735 53.9572 111.656 53.9568Z" fill="#F08E2D"/>
<path d="M148.446 84.6309C148.625 84.3705 148.76 84.0611 148.84 83.7244C148.919 83.3876 148.942 83.0319 148.907 82.6821C148.872 82.3323 148.779 81.997 148.635 81.6999C148.492 81.4027 148.301 81.151 148.076 80.9622L145.022 59.3525L141.308 61.1777L145.477 81.8454C145.263 82.3674 145.201 82.9753 145.302 83.554C145.404 84.1327 145.662 84.642 146.028 84.9854C146.394 85.3287 146.842 85.4823 147.288 85.417C147.733 85.3516 148.145 85.072 148.446 84.6309Z" fill="#A0616A"/>
<path d="M119.039 51.7352C119.048 51.8675 119.05 52.0006 119.043 52.1332L126.477 59.3964L128.585 58.2975L130.308 62.1195L126.724 64.5253C126.435 64.7197 126.104 64.7896 125.78 64.7246C125.457 64.6595 125.159 64.4631 124.931 64.1647L117.499 54.4399C117.106 54.5525 116.695 54.5104 116.321 54.3192C115.947 54.1281 115.628 53.7969 115.405 53.3697C115.183 52.9425 115.069 52.4396 115.077 51.9279C115.086 51.4162 115.217 50.9198 115.453 50.5049C115.689 50.09 116.019 49.7762 116.399 49.6052C116.779 49.4343 117.191 49.4142 117.581 49.5478C117.97 49.6813 118.318 49.9622 118.578 50.3529C118.839 50.7437 119 51.2258 119.039 51.7352Z" fill="#A0616A"/>
<path d="M135.384 122.302H133.664L132.846 114.209L135.385 114.209L135.384 122.302Z" fill="#A0616A"/>
<path d="M136.231 125L129.462 125V124.886C129.462 124.429 129.53 123.976 129.662 123.553C129.794 123.131 129.989 122.747 130.233 122.423C130.478 122.1 130.768 121.843 131.088 121.668C131.408 121.493 131.75 121.403 132.096 121.403L136.231 121.403L136.231 125Z" fill="#2F2E41"/>
<path d="M143.845 122.302H141.552L140.461 114.209L143.846 114.209L143.845 122.302Z" fill="#A0616A"/>
<path d="M143.846 125L137.077 125V124.886C137.077 124.429 137.145 123.976 137.277 123.553C137.41 123.131 137.604 122.747 137.849 122.423C138.093 122.1 138.384 121.843 138.703 121.668C139.023 121.493 139.366 121.403 139.712 121.403L143.846 121.403L143.846 125Z" fill="#2F2E41"/>
<path d="M133.562 120.46C133.384 120.46 133.213 120.368 133.081 120.201C132.95 120.034 132.868 119.804 132.851 119.557L131.154 87.6806L131.234 87.6715L142.914 86.3309L142.917 86.4468L143.846 119.468C143.849 119.602 143.833 119.736 143.799 119.861C143.765 119.987 143.713 120.101 143.646 120.198C143.579 120.295 143.499 120.372 143.411 120.424C143.322 120.477 143.227 120.504 143.131 120.504H140.841C140.67 120.505 140.505 120.42 140.375 120.264C140.245 120.109 140.16 119.893 140.134 119.657L137.025 92.9818C137.021 92.9543 137.011 92.9293 136.995 92.912C136.98 92.8946 136.96 92.8861 136.94 92.8881C136.92 92.8901 136.902 92.9025 136.888 92.9229C136.874 92.9432 136.867 92.97 136.867 92.9979L136.726 119.336C136.724 119.59 136.653 119.834 136.527 120.018C136.401 120.202 136.23 120.312 136.048 120.326L133.6 120.459C133.587 120.46 133.575 120.46 133.562 120.46Z" fill="#2F2E41"/>
<path d="M135.385 47.6619C137.721 47.6619 139.615 45.2461 139.615 42.2662C139.615 39.2862 137.721 36.8705 135.385 36.8705C133.048 36.8705 131.154 39.2862 131.154 42.2662C131.154 45.2461 133.048 47.6619 135.385 47.6619Z" fill="#A0616A"/>
<path d="M135.966 89.9281C134.194 89.921 132.431 89.5993 130.723 88.9713C130.559 88.9074 130.416 88.7698 130.319 88.5817C130.222 88.3936 130.176 88.1664 130.19 87.9386C130.735 76.9879 130.863 68.4899 129.716 62.61C129.227 60.104 129.449 57.4647 130.325 55.3689C131.644 52.2148 134.067 50.2951 136.652 50.3614C136.775 50.3645 136.9 50.3704 137.026 50.3791C140.949 50.6488 144.005 55.3881 143.84 60.9438L143.051 87.4246C143.048 87.6179 143.002 87.8056 142.92 87.9642C142.837 88.1228 142.721 88.2451 142.586 88.3158C140.47 89.3792 138.227 89.9253 135.966 89.9281Z" fill="#3F3D56"/>
<path d="M130.332 64.3055L127.148 59.5955C127.057 59.4615 126.991 59.3055 126.955 59.1381C126.919 58.9707 126.913 58.7959 126.938 58.6256C126.963 58.4552 127.018 58.2934 127.099 58.151C127.181 58.0086 127.287 57.8891 127.41 57.8005L131.723 54.698C132.293 54.1423 133.023 53.8824 133.752 53.9753C134.481 54.0682 135.15 54.5064 135.612 55.1937C136.074 55.8811 136.291 56.7615 136.216 57.6419C136.141 58.5223 135.78 59.3309 135.212 59.8902L131.841 64.3555C131.744 64.4833 131.626 64.5845 131.494 64.6522C131.362 64.7199 131.22 64.7524 131.077 64.7477C130.934 64.743 130.793 64.701 130.664 64.6247C130.536 64.5484 130.422 64.4395 130.332 64.3055Z" fill="#3F3D56"/>
<path d="M140.004 63.741C139.882 63.6687 139.774 63.5622 139.686 63.429C139.599 63.2957 139.534 63.1388 139.496 62.969L138.166 57.0376C137.877 56.2163 137.845 55.2758 138.075 54.4225C138.306 53.5691 138.781 52.8726 139.396 52.4857C140.012 52.0987 140.717 52.0529 141.357 52.3584C141.998 52.6638 142.521 53.2955 142.813 54.1149L145.385 59.2934C145.458 59.4412 145.507 59.6084 145.527 59.7835C145.548 59.9586 145.54 60.1376 145.504 60.3082C145.468 60.4788 145.405 60.6371 145.319 60.7723C145.233 60.9075 145.126 61.0163 145.006 61.0915L140.774 63.7325C140.654 63.8078 140.523 63.8475 140.39 63.8489C140.257 63.8504 140.125 63.8136 140.004 63.741Z" fill="#3F3D56"/>
<path d="M137.349 46.6884L134.253 45.782C133.934 45.6886 133.55 45.5102 133.506 45.095C133.446 44.5371 134.074 44.1485 134.016 43.5903C133.96 43.0496 133.388 42.9799 132.98 42.8204C132.601 42.65 132.288 42.2973 132.108 41.837C131.928 41.3766 131.895 40.8447 132.016 40.3539C131.575 41.1491 130.567 41.2172 129.995 40.5729C129.423 39.9287 129.313 38.7599 129.656 37.8895C129.842 37.462 130.104 37.0966 130.421 36.8229C130.738 36.5493 131.101 36.3752 131.48 36.3147C132.243 36.2041 133.014 36.388 133.694 36.8428C133.74 36.2265 134.341 35.9767 134.825 35.9712C135.83 35.9862 136.807 36.4016 137.619 37.1597C138.431 37.9177 139.038 38.9807 139.355 40.2007C139.949 42.648 139.552 45.3307 137.891 46.7626L137.349 46.6884Z" fill="#2F2E41"/>
<path d="M13.6958 115.183C10.9923 114.56 9.83856 117.986 12.5353 118.63C15.2387 119.253 16.3924 115.826 13.6958 115.183Z" fill="#3F3D56"/>
<path d="M27.7732 120.579C24.5289 119.956 23.1445 123.382 26.3805 124.025C29.6246 124.649 31.0091 121.222 27.7732 120.579Z" fill="#3F3D56"/>
<path d="M33.4596 73.7264L33.4215 73.7139L27.0684 93.8471L26.2308 93.5722L32.6294 73.2947C32.6433 72.9821 32.7483 72.6845 32.927 72.4513C33.1057 72.218 33.3475 72.0632 33.612 72.0124C36.7891 71.4259 38.077 74.718 38.077 74.718L38.0643 74.7399L31.5691 95.3237L30.7315 95.0489L37.0355 75.0707C35.1164 72.855 33.4596 73.7264 33.4596 73.7264Z" fill="#3F3D56"/>
<path d="M25.9028 121.402C22.0794 121.334 17.3513 118.918 14.1276 117.107C13.2737 116.628 12.5917 115.812 12.2021 114.803C11.8124 113.794 11.7402 112.656 11.998 111.59L16.176 94.2078C16.3624 93.4375 16.6809 92.7196 17.112 92.0976C17.5431 91.4757 18.0778 90.9628 18.6837 90.5901C19.2716 90.2245 19.9177 90.0048 20.5815 89.9449C21.2454 89.8849 21.9127 89.986 22.5416 90.2416C22.6908 90.3201 26.7496 91.6485 29.4355 92.5275C31.0155 93.0446 32.1572 93.4183 32.2336 93.4483C32.2969 93.4728 35.1364 94.6136 34.6325 98.6254C34.2454 101.706 31.3244 113.06 30.0865 117.798C29.8175 118.834 29.2728 119.742 28.5317 120.391C27.7906 121.039 26.8918 121.394 25.9663 121.403C25.9453 121.403 25.9239 121.403 25.9028 121.402Z" fill="#F08E2D"/>
<path d="M13.8085 114.209L19.2593 93.0239L32.0772 97.1832L32.1538 96.8723L19.0681 92.6259L19.0287 92.779L13.5385 114.117L13.8085 114.209Z" fill="#3F3D56"/>
<path d="M37.0142 75.3278C37.1505 75.0712 37.2243 74.7901 37.2303 74.5042C37.2364 74.2184 37.1746 73.9348 37.0493 73.6735C36.924 73.4121 36.7382 73.1793 36.5051 72.9915C36.2719 72.8037 35.9971 72.6655 35.6999 72.5865L35.2933 65.6475L32.1538 67.7957L33.0212 74.0558C32.9108 74.5262 32.9909 75.0176 33.2462 75.4371C33.5016 75.8565 33.9145 76.1748 34.4066 76.3316C34.8988 76.4884 35.4361 76.4728 35.9167 76.2878C36.3973 76.1028 36.7878 75.7612 37.0142 75.3278Z" fill="#FFB7B7"/>
<path d="M57.8429 76.4792C57.7019 76.2422 57.6067 75.9716 57.5641 75.6865C57.5214 75.4014 57.5324 75.1088 57.5961 74.8293C57.6599 74.5498 57.7749 74.2901 57.9331 74.0686C58.0913 73.847 58.2888 73.6691 58.5117 73.5472L57.9114 66.5468L60.6613 68.2427L60.8098 74.6304C60.9588 75.0851 60.961 75.5883 60.8161 76.0447C60.6712 76.5012 60.3892 76.8792 60.0235 77.1071C59.6578 77.3349 59.2338 77.3969 58.8319 77.2812C58.43 77.1655 58.0781 76.8801 57.8429 76.4792Z" fill="#FFB7B7"/>
<path d="M41.4619 122.302L43.7549 122.302L44.846 113.309H41.4614L41.4619 122.302Z" fill="#FFB7B7"/>
<path d="M41.4614 121.403L45.5958 121.403C46.2945 121.403 46.9648 121.678 47.4589 122.168C47.953 122.658 48.2306 123.323 48.2307 124.016V124.1L41.4616 124.101L41.4614 121.403Z" fill="#2F2E41"/>
<path d="M52.4615 120.882L54.6667 121.403L57.5385 112.279L54.2839 111.511L52.4615 120.882Z" fill="#FFB7B7"/>
<path d="M52.1916 120.504L56.2788 121.268C56.9696 121.397 57.5734 121.76 57.9572 122.277C58.341 122.795 58.4735 123.424 58.3255 124.027L58.3073 124.101L51.6154 122.85L52.1916 120.504Z" fill="#2F2E41"/>
<path d="M38.2289 68.3453C38.2289 68.3453 36.0138 76.3911 38.1832 85.4894L40.3912 96.3881L40.9392 120.504L45.4105 118.817L47.2321 82.0336L55.6227 98.771L51.2066 118.817L56.2851 119.012L61.7692 97.3327L56.9475 77.1033L56.0643 72.1729L38.2289 68.3453Z" fill="#2F2E41"/>
<path d="M56.5074 42.1028L51.8147 39.1816L43.6961 38.6691L38.0647 41.8978L40.3533 59.0443C40.3533 59.0443 35.9885 65.8856 37.5798 70.4437C39.544 76.0696 56.7191 79.0045 56.3832 73.5141C55.853 64.8498 55.0343 65.4474 54.434 61.1986C53.7754 56.5366 58.3846 50.5589 58.3846 50.5589L56.5074 42.1028Z" fill="#CBCBCB"/>
<path d="M39.7693 43.8173L39.2966 41.3669C39.2966 41.3669 37.2799 41.6792 35.8823 46.3483C34.4847 51.0174 32.0004 60.8599 32.0004 60.8599L32.1302 64.4356C32.1302 64.4356 31.1727 65.7588 31.8333 66.3631C32.4939 66.9674 30.6401 67.7867 31.5789 68.6455C31.9911 69.0232 32.3032 69.5354 32.4777 70.1203C32.6523 70.7052 32.6818 71.338 32.5627 71.9425L35.4463 70.8773L35.2343 65.2472L36.3768 60.8092L39.43 49.7011L39.7693 43.8173Z" fill="#CBCBCB"/>
<path d="M55.0689 43.8193L55.7077 41.4073C55.7077 41.4073 56.8842 40.8196 57.7526 44.1314C58.6211 47.4432 59.0333 55.8241 59.0333 55.8241L60.7202 65.8141C60.7202 65.8141 61.3506 67.0864 61.0154 67.4512C60.6803 67.8159 62.4875 68.3286 61.4372 69.0042C60.3868 69.6798 61.5277 68.8587 61.1353 70.3991C60.8775 71.4108 61.1419 71.9425 61.1419 71.9425L57.8945 71.145L57.0089 66.024L55 56.5031L55.0689 43.8193Z" fill="#CBCBCB"/>
<path d="M47.8076 35.9713C51.3125 35.9713 54.1537 32.9516 54.1537 29.2267C54.1537 25.5017 51.3125 22.4821 47.8076 22.4821C44.3027 22.4821 41.4614 25.5017 41.4614 29.2267C41.4614 32.9516 44.3027 35.9713 47.8076 35.9713Z" fill="#2F2E41"/>
<path d="M47.3846 25.514C46.0613 24.0346 44.46 22.8929 42.6934 22.1694C41.5594 21.7062 40.3251 21.4201 39.1396 21.6831C37.954 21.9461 36.8328 22.8504 36.5021 24.1329C36.2317 25.1816 36.5109 26.3107 36.9306 27.2979C37.3503 28.2851 37.9107 29.2005 38.2501 30.2245C38.5965 31.2694 38.7006 32.3931 38.5531 33.4936C38.4056 34.5941 38.0112 35.6366 37.4056 36.5264C36.8 37.4162 36.0025 38.1251 35.0853 38.5889C34.1682 39.0526 33.1605 39.2565 32.1538 39.182C33.3187 39.3542 34.3924 39.9577 35.531 40.279C36.6696 40.6002 38.0135 40.5784 38.8596 39.6791C39.7548 38.7276 39.7727 37.1805 39.7295 35.8103C39.6651 33.7735 39.6008 31.7367 39.5364 29.6999C39.5036 28.6612 39.4756 27.5892 39.8154 26.6197C40.1551 25.6502 40.9626 24.8012 41.9052 24.81C42.6197 24.8167 43.2521 25.2939 43.825 25.7645C44.398 26.2351 45.0044 26.7372 45.7161 26.8072C46.4277 26.8772 47.2402 26.2965 47.187 25.511L47.3846 25.514Z" fill="#2F2E41"/>
<path d="M52.3983 34.4571C53.5748 31.9968 52.7838 28.912 50.6317 27.5671C48.4795 26.2222 45.7811 27.1264 44.6046 29.5867C43.4281 32.047 44.219 35.1318 46.3712 36.4767C48.5234 37.8217 51.2218 36.9175 52.3983 34.4571Z" fill="#FFB7B7"/>
<path d="M55 31.4748H48.2738L48.2048 30.4572L47.8599 31.4748H46.8242L46.6875 29.458L46.004 31.4748H44V31.3749C44.0015 29.9708 44.5315 28.6248 45.4737 27.6319C46.4159 26.6391 47.6933 26.0807 49.0258 26.0791H49.9741C51.3066 26.0807 52.5841 26.6391 53.5263 27.6319C54.4685 28.6248 54.9985 29.9708 55 31.3749V31.4748Z" fill="#2F2E41"/>
<path d="M44.9956 35.0719L42.6956 32.5535L42.3077 26.9784H47.3847L47.259 27.1157C45.5102 29.026 43.6222 31.8295 44.9956 35.0719Z" fill="#2F2E41"/>
<path d="M75.955 125H0.198835C0.146101 125 0.0955261 124.953 0.0582373 124.868C0.0209485 124.784 0 124.67 0 124.55C0 124.431 0.0209485 124.317 0.0582373 124.232C0.0955261 124.148 0.146101 124.101 0.198835 124.101H75.955C76.0077 124.101 76.0583 124.148 76.0956 124.232C76.1329 124.317 76.1538 124.431 76.1538 124.55C76.1538 124.67 76.1329 124.784 76.0956 124.868C76.0583 124.953 76.0077 125 75.955 125Z" fill="#CBCBCB"/>
</svg>
