<svg width="96" height="112" viewBox="0 0 96 112" fill="none" xmlns="http://www.w3.org/2000/svg">
<path d="M0 8C0 3.58172 3.58172 0 8 0H96V112H8C3.58172 112 0 108.418 0 104V8Z" fill="#F2EBE1"/>
<g clip-path="url(#clip0_1_1974)">
<path d="M34.9225 58.1113C34.9225 57.5129 35.3392 57.0213 36.0203 57.0213C36.6711 57.0213 37.1103 57.4918 37.1103 58.1113C37.1103 58.7308 36.6711 59.2012 36.0203 59.2012C35.3392 59.2012 34.9225 58.7097 34.9225 58.1113ZM37.8522 58.1113V56.4085H37.0653V56.8233C36.8158 56.5167 36.4372 56.3245 35.9224 56.3245C34.9081 56.3245 34.1122 57.0728 34.1122 58.1121C34.1122 59.1514 34.9077 59.8998 35.9224 59.8998C36.437 59.8998 36.8158 59.7073 37.0653 59.401V59.8143H37.8514V58.1113H37.8522ZM64.4406 58.1113C64.4406 57.5129 64.8573 57.0213 65.5386 57.0213C66.1902 57.0213 66.6287 57.4918 66.6287 58.1113C66.6287 58.7308 66.1902 59.2012 65.5386 59.2012C64.8576 59.2012 64.4406 58.7097 64.4406 58.1113ZM67.3713 58.1113V55.0416H66.5837V56.8233C66.3341 56.5167 65.9556 56.3245 65.4407 56.3245C64.4265 56.3245 63.6306 57.0728 63.6306 58.1121C63.6306 59.1514 64.4261 59.8998 65.4407 59.8998C65.9556 59.8998 66.3341 59.7073 66.5837 59.401V59.8143H67.3713V58.1113ZM47.6187 56.9863C48.1258 56.9863 48.4515 57.2854 48.5346 57.812H46.657C46.741 57.3204 47.0583 56.9863 47.6189 56.9863H47.6187ZM47.6346 56.3226C46.5741 56.3226 45.8322 57.0485 45.8322 58.1102C45.8322 59.1927 46.6038 59.8979 47.6873 59.8979C48.2323 59.8979 48.7315 59.7699 49.1707 59.4209L48.7851 58.8723C48.4817 59.1004 48.0954 59.2284 47.7323 59.2284C47.2252 59.2284 46.7635 59.0075 46.6499 58.3946H49.3369C49.3447 58.3025 49.3526 58.2096 49.3526 58.11C49.3447 57.0487 48.647 56.3224 47.6342 56.3224L47.6346 56.3226ZM57.1347 58.11C57.1347 57.5117 57.5514 57.0201 58.2325 57.0201C58.8834 57.0201 59.3226 57.4905 59.3226 58.11C59.3226 58.7296 58.8834 59.2 58.2325 59.2C57.5514 59.2 57.1345 58.7084 57.1345 58.11H57.1347ZM60.0643 58.11V56.4085H59.2778V56.8233C59.0274 56.5167 58.6497 56.3245 58.1348 56.3245C57.1206 56.3245 56.3247 57.0728 56.3247 58.1121C56.3247 59.1514 57.1202 59.8998 58.1348 59.8998C58.6497 59.8998 59.0274 59.7073 59.2778 59.401V59.8143H60.0645V58.1113L60.0643 58.11ZM52.6909 58.11C52.6909 59.1427 53.4551 59.8977 54.6215 59.8977C55.1665 59.8977 55.5296 59.7836 55.9223 59.4918L55.5444 58.8934C55.2489 59.0932 54.9387 59.2 54.5963 59.2C53.9682 59.1927 53.5063 58.7655 53.5063 58.11C53.5063 57.4546 53.9682 57.0276 54.5963 57.0201C54.9378 57.0201 55.2481 57.1269 55.5444 57.3267L55.9223 56.7283C55.529 56.4365 55.1658 56.3224 54.6215 56.3224C53.4551 56.3224 52.6909 57.0771 52.6909 58.11ZM62.8353 56.3224C62.3813 56.3224 62.0857 56.5221 61.8813 56.8212V56.4085H61.1014V59.8125H61.8892V57.9043C61.8892 57.341 62.1465 57.028 62.6609 57.028C62.8293 57.0257 62.9966 57.0548 63.153 57.1136L63.3955 56.4159C63.2214 56.3514 62.9943 56.323 62.8349 56.323L62.8353 56.3224ZM41.7426 56.6791C41.3641 56.4443 40.8424 56.323 40.267 56.323C39.3502 56.323 38.76 56.7364 38.76 57.4127C38.76 57.9678 39.1994 58.3102 40.0086 58.417L40.3803 58.4668C40.8118 58.5238 41.0155 58.6306 41.0155 58.8229C41.0155 59.0861 40.7289 59.2363 40.1907 59.2363C39.6456 59.2363 39.2523 59.0724 38.9871 58.8801L38.6173 59.4574C39.0488 59.7565 39.5938 59.8992 40.1841 59.8992C41.2291 59.8992 41.8348 59.4362 41.8348 58.7881C41.8348 58.1897 41.3581 57.8767 40.5706 57.7699L40.1997 57.7193C39.8591 57.6778 39.5861 57.6133 39.5861 57.3851C39.5861 57.1363 39.8434 56.9865 40.2751 56.9865C40.737 56.9865 41.1842 57.1504 41.4033 57.2783L41.744 56.68L41.7426 56.6791ZM51.8961 56.3236C51.4421 56.3236 51.1464 56.5234 50.9429 56.8224V56.4085H50.1631V59.8125H50.95V57.9043C50.95 57.341 51.2073 57.028 51.7217 57.028C51.8901 57.0257 52.0574 57.0548 52.2138 57.1136L52.4563 56.4159C52.2821 56.3514 52.055 56.323 51.8956 56.323L51.8961 56.3236ZM45.1811 56.4085H43.8943V55.3758H43.0988V56.4085H42.3648V57.085H43.0988V58.6379C43.0988 59.4277 43.4247 59.8981 44.3556 59.8981C44.6971 59.8981 45.0904 59.7986 45.34 59.6349L45.1127 59.0011C44.8779 59.129 44.6206 59.1935 44.416 59.1935C44.0227 59.1935 43.8943 58.9654 43.8943 58.6238V57.0856H45.1811V56.4085ZM33.4164 59.8133V57.677C33.4164 56.8724 32.8713 56.3311 31.9927 56.3238C31.5308 56.3166 31.0543 56.4518 30.7207 56.9295C30.4712 56.552 30.0778 56.3238 29.5248 56.3238C29.1383 56.3238 28.7607 56.4306 28.465 56.8293V56.4085H27.6774V59.8125H28.4712V57.925C28.4712 57.3341 28.8195 57.0201 29.3575 57.0201C29.88 57.0201 30.1444 57.3406 30.1444 57.9176V59.812H30.9399V57.9246C30.9399 57.3337 31.303 57.0197 31.8254 57.0197C32.3627 57.0197 32.6191 57.3401 32.6191 57.9171V59.8116L33.4164 59.8133Z" fill="#231F20"/>
<path d="M53.0804 50.0834H41.4677V28.8334H53.0806L53.0804 50.0834Z" fill="#FF5F00"/>
<path d="M42.6885 39.4583C42.6885 35.1657 44.7655 31.3418 47.9998 28.8775C45.5516 27.0094 42.5235 25.9956 39.4058 26C31.7256 26 25.5 32.0254 25.5 39.4583C25.5 46.8912 31.7256 52.9166 39.4058 52.9166C42.5236 52.9212 45.5517 51.9073 48 50.0391C44.7659 47.5753 42.6885 43.7512 42.6885 39.4583Z" fill="#EB001B"/>
<path d="M69.7742 39.4583C69.7742 46.8912 63.5489 52.9167 55.8691 52.9167C52.7511 52.9211 49.7228 51.9072 47.2742 50.0391C50.5092 47.5749 52.5861 43.7512 52.5861 39.4583C52.5861 35.1655 50.5092 31.3418 47.2742 28.8775C49.7227 27.0095 52.751 25.9956 55.8689 26C63.5486 26 69.774 32.0254 69.774 39.4583" fill="#F79E1B"/>
</g>
<path d="M22.4936 73.3636V85H20.3857V75.4148H20.3175L17.5959 77.1534V75.2216L20.4879 73.3636H22.4936ZM29.4936 85.1591C28.736 85.1591 28.058 85.017 27.4595 84.733C26.861 84.4451 26.3857 84.0511 26.0334 83.5511C25.6849 83.0511 25.4993 82.4792 25.4766 81.8352H27.522C27.5599 82.3125 27.7663 82.7027 28.1413 83.0057C28.5163 83.3049 28.9671 83.4545 29.4936 83.4545C29.9065 83.4545 30.2739 83.3598 30.5959 83.1705C30.9179 82.9811 31.1716 82.7178 31.3572 82.3807C31.5429 82.0436 31.6338 81.6591 31.63 81.2273C31.6338 80.7879 31.541 80.3977 31.3516 80.0568C31.1622 79.7159 30.9027 79.4489 30.5732 79.2557C30.2436 79.0587 29.8648 78.9602 29.4368 78.9602C29.0883 78.9564 28.7455 79.0208 28.4084 79.1534C28.0713 79.286 27.8042 79.4602 27.6072 79.6761L25.7038 79.3636L26.3118 73.3636H33.0618V75.125H28.0561L27.7209 78.2102H27.7891C28.005 77.9564 28.3099 77.7462 28.7038 77.5795C29.0978 77.4091 29.5296 77.3239 29.9993 77.3239C30.7038 77.3239 31.3326 77.4905 31.8857 77.8239C32.4387 78.1534 32.8743 78.608 33.1925 79.1875C33.5107 79.767 33.6697 80.4299 33.6697 81.1761C33.6697 81.9451 33.4917 82.6307 33.1357 83.233C32.7834 83.8314 32.2929 84.303 31.6641 84.6477C31.0391 84.9886 30.3156 85.1591 29.4936 85.1591ZM41.7947 82.8182V82.2045C41.7947 81.7538 41.8894 81.339 42.0788 80.9602C42.272 80.5814 42.5523 80.2765 42.9197 80.0455C43.2872 79.8144 43.7322 79.6989 44.255 79.6989C44.7929 79.6989 45.2436 79.8144 45.6072 80.0455C45.9709 80.2727 46.2455 80.5758 46.4311 80.9545C46.6205 81.3333 46.7152 81.75 46.7152 82.2045V82.8182C46.7152 83.2689 46.6205 83.6837 46.4311 84.0625C46.2417 84.4413 45.9633 84.7462 45.5959 84.9773C45.2322 85.2083 44.7853 85.3239 44.255 85.3239C43.7247 85.3239 43.2758 85.2083 42.9084 84.9773C42.541 84.7462 42.2625 84.4413 42.0732 84.0625C41.8875 83.6837 41.7947 83.2689 41.7947 82.8182ZM43.2777 82.2045V82.8182C43.2777 83.1174 43.3497 83.392 43.4936 83.642C43.6375 83.892 43.8913 84.017 44.255 84.017C44.6224 84.017 44.8743 83.8939 45.0107 83.6477C45.1508 83.3977 45.2209 83.1212 45.2209 82.8182V82.2045C45.2209 81.9015 45.1546 81.625 45.022 81.375C44.8894 81.1212 44.6338 80.9943 44.255 80.9943C43.8989 80.9943 43.647 81.1212 43.4993 81.375C43.3516 81.625 43.2777 81.9015 43.2777 82.2045ZM35.88 76.1591V75.5455C35.88 75.0909 35.9766 74.6742 36.1697 74.2955C36.3629 73.9167 36.6432 73.6136 37.0107 73.3864C37.3781 73.1553 37.8232 73.0398 38.3459 73.0398C38.88 73.0398 39.3288 73.1553 39.6925 73.3864C40.0599 73.6136 40.3364 73.9167 40.522 74.2955C40.7076 74.6742 40.8004 75.0909 40.8004 75.5455V76.1591C40.8004 76.6136 40.7057 77.0303 40.5163 77.4091C40.3307 77.7841 40.0542 78.0852 39.6868 78.3125C39.3194 78.5398 38.8724 78.6534 38.3459 78.6534C37.8118 78.6534 37.361 78.5398 36.9936 78.3125C36.63 78.0852 36.3535 77.7822 36.1641 77.4034C35.9747 77.0246 35.88 76.6098 35.88 76.1591ZM37.3743 75.5455V76.1591C37.3743 76.4621 37.4444 76.7386 37.5845 76.9886C37.7285 77.2348 37.9822 77.358 38.3459 77.358C38.7095 77.358 38.9595 77.2348 39.0959 76.9886C39.236 76.7386 39.3061 76.4621 39.3061 76.1591V75.5455C39.3061 75.2424 39.2398 74.9659 39.1072 74.7159C38.9747 74.4621 38.7209 74.3352 38.3459 74.3352C37.986 74.3352 37.7341 74.4621 37.5902 74.7159C37.4463 74.9697 37.3743 75.2462 37.3743 75.5455ZM36.5277 85L44.5277 73.3636H45.9482L37.9482 85H36.5277ZM59.7436 79.1818C59.7436 80.4508 59.5031 81.5303 59.022 82.4205C58.5447 83.3106 57.8932 83.9905 57.0675 84.4602C56.2455 84.9261 55.3213 85.1591 54.2947 85.1591C53.2607 85.1591 52.3326 84.9242 51.5107 84.4545C50.6887 83.9848 50.0391 83.3049 49.5618 82.4148C49.0845 81.5246 48.8459 80.447 48.8459 79.1818C48.8459 77.9129 49.0845 76.8333 49.5618 75.9432C50.0391 75.053 50.6887 74.375 51.5107 73.9091C52.3326 73.4394 53.2607 73.2045 54.2947 73.2045C55.3213 73.2045 56.2455 73.4394 57.0675 73.9091C57.8932 74.375 58.5447 75.053 59.022 75.9432C59.5031 76.8333 59.7436 77.9129 59.7436 79.1818ZM57.2493 79.1818C57.2493 78.3598 57.1262 77.6667 56.88 77.1023C56.6375 76.5379 56.2947 76.1098 55.8516 75.8182C55.4084 75.5265 54.8894 75.3807 54.2947 75.3807C53.7 75.3807 53.1811 75.5265 52.7379 75.8182C52.2947 76.1098 51.95 76.5379 51.7038 77.1023C51.4614 77.6667 51.3402 78.3598 51.3402 79.1818C51.3402 80.0038 51.4614 80.697 51.7038 81.2614C51.95 81.8258 52.2947 82.2538 52.7379 82.5455C53.1811 82.8371 53.7 82.983 54.2947 82.983C54.8894 82.983 55.4084 82.8371 55.8516 82.5455C56.2947 82.2538 56.6375 81.8258 56.88 81.2614C57.1262 80.697 57.2493 80.0038 57.2493 79.1818ZM61.5661 85V73.3636H69.2706V75.392H64.0263V78.1648H68.7592V80.1932H64.0263V85H61.5661ZM70.9254 85V73.3636H78.63V75.392H73.3857V78.1648H78.1186V80.1932H73.3857V85H70.9254Z" fill="#333333"/>
<defs>
<clipPath id="clip0_1_1974">
<rect width="45" height="34" fill="white" transform="translate(25.5 26)"/>
</clipPath>
</defs>
</svg>
