<svg width="344" height="160" viewBox="0 0 344 160" fill="none" xmlns="http://www.w3.org/2000/svg">
<g clip-path="url(#clip0_1_1968)">
<path d="M1.29119 19V5.90909H3.66264V11.451H9.72869V5.90909H12.1065V19H9.72869V13.4389H3.66264V19H1.29119ZM18.8661 19.1918C17.9073 19.1918 17.0763 18.9808 16.3732 18.5589C15.6701 18.1371 15.1246 17.5469 14.7369 16.7884C14.3533 16.0298 14.1616 15.1435 14.1616 14.1293C14.1616 13.1151 14.3533 12.2266 14.7369 11.4638C15.1246 10.701 15.6701 10.1087 16.3732 9.68679C17.0763 9.26491 17.9073 9.05398 18.8661 9.05398C19.8249 9.05398 20.6559 9.26491 21.359 9.68679C22.0621 10.1087 22.6055 10.701 22.989 11.4638C23.3768 12.2266 23.5707 13.1151 23.5707 14.1293C23.5707 15.1435 23.3768 16.0298 22.989 16.7884C22.6055 17.5469 22.0621 18.1371 21.359 18.5589C20.6559 18.9808 19.8249 19.1918 18.8661 19.1918ZM18.8789 17.3381C19.3988 17.3381 19.8335 17.1953 20.1829 16.9098C20.5323 16.62 20.7923 16.2322 20.9627 15.7464C21.1374 15.2607 21.2248 14.7195 21.2248 14.1229C21.2248 13.522 21.1374 12.9787 20.9627 12.4929C20.7923 12.0028 20.5323 11.6129 20.1829 11.3232C19.8335 11.0334 19.3988 10.8885 18.8789 10.8885C18.3462 10.8885 17.9031 11.0334 17.5494 11.3232C17.1999 11.6129 16.9379 12.0028 16.7631 12.4929C16.5927 12.9787 16.5075 13.522 16.5075 14.1229C16.5075 14.7195 16.5927 15.2607 16.7631 15.7464C16.9379 16.2322 17.1999 16.62 17.5494 16.9098C17.9031 17.1953 18.3462 17.3381 18.8789 17.3381ZM30.4373 9.18182V10.9716H24.7931V9.18182H30.4373ZM26.1866 6.82955H28.5005V16.0469C28.5005 16.358 28.5474 16.5966 28.6412 16.7628C28.7392 16.9247 28.867 17.0355 29.0247 17.0952C29.1824 17.1548 29.3571 17.1847 29.5488 17.1847C29.6937 17.1847 29.8258 17.174 29.9451 17.1527C30.0687 17.1314 30.1625 17.1122 30.2264 17.0952L30.6163 18.9041C30.4927 18.9467 30.3159 18.9936 30.0858 19.0447C29.8599 19.0959 29.5829 19.1257 29.2548 19.1342C28.6752 19.1513 28.1532 19.0639 27.6887 18.8722C27.2243 18.6761 26.8556 18.3736 26.5829 17.9645C26.3145 17.5554 26.1824 17.044 26.1866 16.4304V6.82955ZM41.12 19.1918C40.1612 19.1918 39.3303 18.9808 38.6271 18.5589C37.924 18.1371 37.3786 17.5469 36.9908 16.7884C36.6072 16.0298 36.4155 15.1435 36.4155 14.1293C36.4155 13.1151 36.6072 12.2266 36.9908 11.4638C37.3786 10.701 37.924 10.1087 38.6271 9.68679C39.3303 9.26491 40.1612 9.05398 41.12 9.05398C42.0788 9.05398 42.9098 9.26491 43.6129 9.68679C44.3161 10.1087 44.8594 10.701 45.2429 11.4638C45.6307 12.2266 45.8246 13.1151 45.8246 14.1293C45.8246 15.1435 45.6307 16.0298 45.2429 16.7884C44.8594 17.5469 44.3161 18.1371 43.6129 18.5589C42.9098 18.9808 42.0788 19.1918 41.12 19.1918ZM41.1328 17.3381C41.6527 17.3381 42.0874 17.1953 42.4368 16.9098C42.7862 16.62 43.0462 16.2322 43.2166 15.7464C43.3913 15.2607 43.4787 14.7195 43.4787 14.1229C43.4787 13.522 43.3913 12.9787 43.2166 12.4929C43.0462 12.0028 42.7862 11.6129 42.4368 11.3232C42.0874 11.0334 41.6527 10.8885 41.1328 10.8885C40.6001 10.8885 40.157 11.0334 39.8033 11.3232C39.4538 11.6129 39.1918 12.0028 39.017 12.4929C38.8466 12.9787 38.7614 13.522 38.7614 14.1229C38.7614 14.7195 38.8466 15.2607 39.017 15.7464C39.1918 16.2322 39.4538 16.62 39.8033 16.9098C40.157 17.1953 40.6001 17.3381 41.1328 17.3381ZM52.7615 9.18182V10.9716H46.9576V9.18182H52.7615ZM48.4086 19V8.25497C48.4086 7.59446 48.5449 7.04474 48.8176 6.60582C49.0946 6.1669 49.4654 5.83878 49.9299 5.62145C50.3944 5.40412 50.91 5.29545 51.4767 5.29545C51.8773 5.29545 52.2331 5.32741 52.5442 5.39134C52.8553 5.45526 53.0854 5.51278 53.2346 5.56392L52.7743 7.35369C52.6763 7.32386 52.5527 7.29403 52.4036 7.2642C52.2544 7.23011 52.0882 7.21307 51.905 7.21307C51.4746 7.21307 51.1699 7.31747 50.9909 7.52628C50.8162 7.73082 50.7289 8.02486 50.7289 8.40838V19H48.4086ZM59.5467 9.18182V10.9716H53.7427V9.18182H59.5467ZM55.1937 19V8.25497C55.1937 7.59446 55.3301 7.04474 55.6028 6.60582C55.8798 6.1669 56.2505 5.83878 56.715 5.62145C57.1795 5.40412 57.6951 5.29545 58.2619 5.29545C58.6625 5.29545 59.0183 5.32741 59.3294 5.39134C59.6404 5.45526 59.8706 5.51278 60.0197 5.56392L59.5595 7.35369C59.4615 7.32386 59.3379 7.29403 59.1887 7.2642C59.0396 7.23011 58.8734 7.21307 58.6902 7.21307C58.2598 7.21307 57.9551 7.31747 57.7761 7.52628C57.6014 7.73082 57.514 8.02486 57.514 8.40838V19H55.1937ZM65.3363 19.1918C64.3519 19.1918 63.5018 18.9872 62.7859 18.5781C62.0742 18.1648 61.5266 17.581 61.1431 16.8267C60.7596 16.0682 60.5678 15.1754 60.5678 14.1484C60.5678 13.1385 60.7596 12.2521 61.1431 11.4893C61.5309 10.7223 62.0721 10.1257 62.7667 9.69957C63.4613 9.26918 64.2773 9.05398 65.2148 9.05398C65.82 9.05398 66.391 9.15199 66.9279 9.34801C67.4691 9.53977 67.9464 9.83807 68.3597 10.2429C68.7773 10.6477 69.1055 11.1634 69.3441 11.7898C69.5827 12.4119 69.7021 13.1534 69.7021 14.0142V14.7237H61.6545V13.1641H67.484C67.4798 12.7209 67.3839 12.3267 67.1964 11.9815C67.0089 11.6321 66.7468 11.3572 66.4102 11.157C66.0778 10.9567 65.69 10.8565 65.2468 10.8565C64.7738 10.8565 64.3583 10.9716 64.0004 11.2017C63.6424 11.4276 63.3633 11.7259 63.163 12.0966C62.967 12.4631 62.8668 12.8658 62.8626 13.3047V14.6662C62.8626 15.2372 62.967 15.7273 63.1758 16.1364C63.3846 16.5412 63.6765 16.8523 64.0515 17.0696C64.4265 17.2827 64.8654 17.3892 65.3683 17.3892C65.7049 17.3892 66.0096 17.3423 66.2823 17.2486C66.555 17.1506 66.7915 17.0078 66.9918 16.8203C67.1921 16.6328 67.3434 16.4006 67.4457 16.1236L69.6062 16.3665C69.4698 16.9375 69.2099 17.4361 68.8264 17.8622C68.4471 18.2841 67.9613 18.6122 67.369 18.8466C66.7766 19.0767 66.0991 19.1918 65.3363 19.1918ZM71.6596 19V9.18182H73.9032V10.8182H74.0055C74.1845 10.2514 74.4913 9.81463 74.926 9.50781C75.3649 9.19673 75.8656 9.04119 76.4281 9.04119C76.5559 9.04119 76.6987 9.04758 76.8564 9.06037C77.0183 9.06889 77.1525 9.08381 77.2591 9.10511V11.2337C77.161 11.1996 77.0055 11.1697 76.7924 11.1442C76.5836 11.1143 76.3812 11.0994 76.1852 11.0994C75.7633 11.0994 75.3841 11.1911 75.0474 11.3743C74.715 11.5533 74.4529 11.8026 74.2612 12.1222C74.0694 12.4418 73.9735 12.8104 73.9735 13.228V19H71.6596Z" fill="#191919"/>
<path d="M291.58 9.4929C291.527 9.02225 291.308 8.65767 290.924 8.39915C290.539 8.13731 290.055 8.00639 289.472 8.00639C289.055 8.00639 288.693 8.07268 288.388 8.20526C288.083 8.33452 287.846 8.51349 287.677 8.74219C287.512 8.96757 287.429 9.22443 287.429 9.51278C287.429 9.75473 287.485 9.96354 287.598 10.1392C287.714 10.3149 287.865 10.4624 288.05 10.5817C288.239 10.6977 288.441 10.7955 288.657 10.875C288.872 10.9512 289.079 11.0142 289.278 11.0639L290.273 11.3224C290.597 11.402 290.93 11.5097 291.272 11.6456C291.613 11.7815 291.93 11.9605 292.221 12.1825C292.513 12.4046 292.748 12.6797 292.927 13.0078C293.11 13.3359 293.201 13.7287 293.201 14.1861C293.201 14.7628 293.052 15.2749 292.753 15.7223C292.458 16.1697 292.029 16.5227 291.466 16.7812C290.906 17.0398 290.228 17.169 289.432 17.169C288.67 17.169 288.01 17.0481 287.454 16.8061C286.897 16.5642 286.461 16.2211 286.146 15.777C285.831 15.3295 285.657 14.7992 285.624 14.1861H287.165C287.195 14.554 287.314 14.8606 287.523 15.1058C287.735 15.3478 288.006 15.5284 288.334 15.6477C288.665 15.7637 289.028 15.8217 289.422 15.8217C289.857 15.8217 290.243 15.7538 290.581 15.6179C290.922 15.4787 291.191 15.2865 291.386 15.0412C291.582 14.7926 291.68 14.5026 291.68 14.1712C291.68 13.8696 291.593 13.6226 291.421 13.4304C291.252 13.2382 291.022 13.0791 290.73 12.9531C290.442 12.8272 290.115 12.7161 289.751 12.62L288.547 12.2919C287.732 12.0698 287.086 11.7434 286.608 11.3125C286.135 10.8816 285.898 10.3116 285.898 9.60227C285.898 9.01562 286.057 8.50355 286.375 8.06605C286.693 7.62855 287.124 7.28883 287.667 7.04688C288.211 6.80161 288.824 6.67898 289.507 6.67898C290.196 6.67898 290.805 6.79995 291.331 7.0419C291.862 7.28385 292.279 7.61695 292.584 8.04119C292.889 8.46212 293.048 8.94602 293.062 9.4929H291.58ZM298.208 17.1541C297.456 17.1541 296.808 16.9934 296.265 16.6719C295.724 16.3471 295.307 15.8913 295.012 15.3047C294.72 14.7147 294.574 14.0237 294.574 13.2315C294.574 12.4493 294.72 11.7599 295.012 11.1634C295.307 10.5668 295.718 10.1011 296.245 9.76633C296.775 9.43158 297.395 9.2642 298.104 9.2642C298.535 9.2642 298.953 9.33546 299.357 9.47798C299.761 9.6205 300.124 9.84422 300.446 10.1491C300.767 10.4541 301.021 10.8501 301.206 11.3374C301.392 11.8213 301.485 12.4096 301.485 13.1023V13.6293H295.414V12.5156H300.028C300.028 12.1245 299.949 11.7782 299.789 11.4766C299.63 11.1716 299.407 10.9313 299.118 10.7557C298.833 10.58 298.498 10.4922 298.114 10.4922C297.696 10.4922 297.332 10.5949 297.02 10.8004C296.712 11.0026 296.473 11.2678 296.304 11.5959C296.139 11.9207 296.056 12.2737 296.056 12.6548V13.5249C296.056 14.0353 296.145 14.4695 296.324 14.8274C296.507 15.1854 296.76 15.4588 297.085 15.6477C297.41 15.8333 297.789 15.9261 298.223 15.9261C298.505 15.9261 298.762 15.8864 298.994 15.8068C299.226 15.724 299.426 15.6013 299.596 15.4389C299.765 15.2765 299.894 15.076 299.983 14.8374L301.39 15.0909C301.278 15.5052 301.075 15.8681 300.784 16.1797C300.495 16.4879 300.132 16.7282 299.695 16.9006C299.261 17.0696 298.765 17.1541 298.208 17.1541ZM306.425 17.1541C305.673 17.1541 305.025 16.9934 304.481 16.6719C303.941 16.3471 303.523 15.8913 303.229 15.3047C302.937 14.7147 302.791 14.0237 302.791 13.2315C302.791 12.4493 302.937 11.7599 303.229 11.1634C303.523 10.5668 303.934 10.1011 304.461 9.76633C304.992 9.43158 305.612 9.2642 306.321 9.2642C306.752 9.2642 307.169 9.33546 307.574 9.47798C307.978 9.6205 308.341 9.84422 308.662 10.1491C308.984 10.4541 309.238 10.8501 309.423 11.3374C309.609 11.8213 309.702 12.4096 309.702 13.1023V13.6293H303.631V12.5156H308.245C308.245 12.1245 308.165 11.7782 308.006 11.4766C307.847 11.1716 307.623 10.9313 307.335 10.7557C307.05 10.58 306.715 10.4922 306.331 10.4922C305.913 10.4922 305.549 10.5949 305.237 10.8004C304.929 11.0026 304.69 11.2678 304.521 11.5959C304.355 11.9207 304.273 12.2737 304.273 12.6548V13.5249C304.273 14.0353 304.362 14.4695 304.541 14.8274C304.723 15.1854 304.977 15.4588 305.302 15.6477C305.626 15.8333 306.006 15.9261 306.44 15.9261C306.722 15.9261 306.979 15.8864 307.211 15.8068C307.443 15.724 307.643 15.6013 307.812 15.4389C307.981 15.2765 308.111 15.076 308.2 14.8374L309.607 15.0909C309.494 15.5052 309.292 15.8681 309.001 16.1797C308.712 16.4879 308.349 16.7282 307.912 16.9006C307.478 17.0696 306.982 17.1541 306.425 17.1541ZM317.278 17.169C316.794 17.169 316.357 17.0795 315.966 16.9006C315.575 16.7183 315.265 16.4548 315.036 16.1101C314.811 15.7654 314.698 15.3428 314.698 14.8423C314.698 14.4115 314.781 14.0568 314.947 13.7784C315.112 13.5 315.336 13.2796 315.618 13.1172C315.899 12.9548 316.214 12.8321 316.562 12.7493C316.91 12.6664 317.265 12.6035 317.626 12.5604C318.084 12.5073 318.455 12.4643 318.74 12.4311C319.025 12.3946 319.232 12.3366 319.361 12.2571C319.491 12.1776 319.555 12.0483 319.555 11.8693V11.8345C319.555 11.4003 319.433 11.0639 319.187 10.8253C318.945 10.5866 318.584 10.4673 318.104 10.4673C317.603 10.4673 317.209 10.5784 316.92 10.8004C316.635 11.0192 316.438 11.2628 316.329 11.5312L314.932 11.2131C315.097 10.7491 315.339 10.3745 315.657 10.0895C315.979 9.80114 316.349 9.59233 316.766 9.46307C317.184 9.33049 317.623 9.2642 318.084 9.2642C318.389 9.2642 318.712 9.30066 319.053 9.37358C319.398 9.44318 319.719 9.57244 320.018 9.76136C320.319 9.95028 320.566 10.2204 320.758 10.5717C320.951 10.9197 321.047 11.3722 321.047 11.929V17H319.595V15.956H319.535C319.439 16.1482 319.295 16.3371 319.103 16.5227C318.911 16.7083 318.664 16.8625 318.362 16.9851C318.06 17.1077 317.699 17.169 317.278 17.169ZM317.601 15.9759C318.012 15.9759 318.364 15.8946 318.655 15.7322C318.95 15.5698 319.174 15.3577 319.327 15.0959C319.482 14.8307 319.56 14.5473 319.56 14.2457V13.2614C319.507 13.3144 319.404 13.3641 319.252 13.4105C319.103 13.4536 318.932 13.4917 318.74 13.5249C318.548 13.5547 318.36 13.5829 318.178 13.6094C317.996 13.6326 317.843 13.6525 317.721 13.669C317.432 13.7055 317.169 13.7668 316.93 13.853C316.695 13.9392 316.506 14.0634 316.363 14.2259C316.224 14.3849 316.155 14.5971 316.155 14.8622C316.155 15.2301 316.291 15.5085 316.562 15.6974C316.834 15.883 317.18 15.9759 317.601 15.9759ZM324.513 6.81818V17H323.027V6.81818H324.513ZM327.999 6.81818V17H326.513V6.81818H327.999Z" fill="#EC441E"/>
<g filter="url(#filter0_d_1_1968)">
<rect y="36" width="264" height="112" rx="8" fill="white" shape-rendering="crispEdges"/>
<path d="M0 44C0 39.5817 3.58172 36 8 36H96V148H8C3.58172 148 0 144.418 0 140V44Z" fill="#F2EBE1"/>
<g clip-path="url(#clip1_1_1968)">
<path d="M34.9225 94.1113C34.9225 93.5129 35.3392 93.0213 36.0203 93.0213C36.6711 93.0213 37.1103 93.4918 37.1103 94.1113C37.1103 94.7308 36.6711 95.2012 36.0203 95.2012C35.3392 95.2012 34.9225 94.7097 34.9225 94.1113ZM37.8522 94.1113V92.4085H37.0653V92.8233C36.8158 92.5167 36.4372 92.3245 35.9224 92.3245C34.9081 92.3245 34.1122 93.0728 34.1122 94.1121C34.1122 95.1514 34.9077 95.8998 35.9224 95.8998C36.437 95.8998 36.8158 95.7073 37.0653 95.401V95.8143H37.8514V94.1113H37.8522ZM64.4406 94.1113C64.4406 93.5129 64.8573 93.0213 65.5386 93.0213C66.1902 93.0213 66.6287 93.4918 66.6287 94.1113C66.6287 94.7308 66.1902 95.2012 65.5386 95.2012C64.8576 95.2012 64.4406 94.7097 64.4406 94.1113ZM67.3713 94.1113V91.0416H66.5837V92.8233C66.3341 92.5167 65.9556 92.3245 65.4407 92.3245C64.4265 92.3245 63.6306 93.0728 63.6306 94.1121C63.6306 95.1514 64.4261 95.8998 65.4407 95.8998C65.9556 95.8998 66.3341 95.7073 66.5837 95.401V95.8143H67.3713V94.1113ZM47.6187 92.9863C48.1258 92.9863 48.4515 93.2854 48.5346 93.812H46.657C46.741 93.3204 47.0583 92.9863 47.6189 92.9863H47.6187ZM47.6346 92.3226C46.5741 92.3226 45.8322 93.0485 45.8322 94.1102C45.8322 95.1927 46.6038 95.8979 47.6873 95.8979C48.2323 95.8979 48.7315 95.7699 49.1707 95.4209L48.7851 94.8723C48.4817 95.1004 48.0954 95.2284 47.7323 95.2284C47.2252 95.2284 46.7635 95.0075 46.6499 94.3946H49.3369C49.3447 94.3025 49.3526 94.2096 49.3526 94.11C49.3447 93.0487 48.647 92.3224 47.6342 92.3224L47.6346 92.3226ZM57.1347 94.11C57.1347 93.5117 57.5514 93.0201 58.2325 93.0201C58.8834 93.0201 59.3226 93.4905 59.3226 94.11C59.3226 94.7296 58.8834 95.2 58.2325 95.2C57.5514 95.2 57.1345 94.7084 57.1345 94.11H57.1347ZM60.0643 94.11V92.4085H59.2778V92.8233C59.0274 92.5167 58.6497 92.3245 58.1348 92.3245C57.1206 92.3245 56.3247 93.0728 56.3247 94.1121C56.3247 95.1514 57.1202 95.8998 58.1348 95.8998C58.6497 95.8998 59.0274 95.7073 59.2778 95.401V95.8143H60.0645V94.1113L60.0643 94.11ZM52.6909 94.11C52.6909 95.1427 53.4551 95.8977 54.6215 95.8977C55.1665 95.8977 55.5296 95.7836 55.9223 95.4918L55.5444 94.8934C55.2489 95.0932 54.9387 95.2 54.5963 95.2C53.9682 95.1927 53.5063 94.7655 53.5063 94.11C53.5063 93.4546 53.9682 93.0276 54.5963 93.0201C54.9378 93.0201 55.2481 93.1269 55.5444 93.3267L55.9223 92.7283C55.529 92.4365 55.1658 92.3224 54.6215 92.3224C53.4551 92.3224 52.6909 93.0771 52.6909 94.11ZM62.8353 92.3224C62.3813 92.3224 62.0857 92.5221 61.8813 92.8212V92.4085H61.1014V95.8125H61.8892V93.9043C61.8892 93.341 62.1465 93.028 62.6609 93.028C62.8293 93.0257 62.9966 93.0548 63.153 93.1136L63.3955 92.4159C63.2214 92.3514 62.9943 92.323 62.8349 92.323L62.8353 92.3224ZM41.7426 92.6791C41.3641 92.4443 40.8424 92.323 40.267 92.323C39.3502 92.323 38.76 92.7364 38.76 93.4127C38.76 93.9678 39.1994 94.3102 40.0086 94.417L40.3803 94.4668C40.8118 94.5238 41.0155 94.6306 41.0155 94.8229C41.0155 95.0861 40.7289 95.2363 40.1907 95.2363C39.6456 95.2363 39.2523 95.0724 38.9871 94.8801L38.6173 95.4574C39.0488 95.7565 39.5938 95.8992 40.1841 95.8992C41.2291 95.8992 41.8348 95.4362 41.8348 94.7881C41.8348 94.1897 41.3581 93.8767 40.5706 93.7699L40.1997 93.7193C39.8591 93.6778 39.5861 93.6133 39.5861 93.3851C39.5861 93.1363 39.8434 92.9865 40.2751 92.9865C40.737 92.9865 41.1842 93.1504 41.4033 93.2783L41.744 92.68L41.7426 92.6791ZM51.8961 92.3236C51.4421 92.3236 51.1464 92.5234 50.9429 92.8224V92.4085H50.1631V95.8125H50.95V93.9043C50.95 93.341 51.2073 93.028 51.7217 93.028C51.8901 93.0257 52.0574 93.0548 52.2138 93.1136L52.4563 92.4159C52.2821 92.3514 52.055 92.323 51.8956 92.323L51.8961 92.3236ZM45.1811 92.4085H43.8943V91.3758H43.0988V92.4085H42.3648V93.085H43.0988V94.6379C43.0988 95.4277 43.4247 95.8981 44.3556 95.8981C44.6971 95.8981 45.0904 95.7986 45.34 95.6349L45.1127 95.0011C44.8779 95.129 44.6206 95.1935 44.416 95.1935C44.0227 95.1935 43.8943 94.9654 43.8943 94.6238V93.0856H45.1811V92.4085ZM33.4164 95.8133V93.677C33.4164 92.8724 32.8713 92.3311 31.9927 92.3238C31.5308 92.3166 31.0543 92.4518 30.7207 92.9295C30.4712 92.552 30.0778 92.3238 29.5248 92.3238C29.1383 92.3238 28.7607 92.4306 28.465 92.8293V92.4085H27.6774V95.8125H28.4712V93.925C28.4712 93.3341 28.8195 93.0201 29.3575 93.0201C29.88 93.0201 30.1444 93.3406 30.1444 93.9176V95.812H30.9399V93.9246C30.9399 93.3337 31.303 93.0197 31.8254 93.0197C32.3627 93.0197 32.6191 93.3401 32.6191 93.9171V95.8116L33.4164 95.8133Z" fill="#231F20"/>
<path d="M53.0804 86.0834H41.4677V64.8334H53.0806L53.0804 86.0834Z" fill="#FF5F00"/>
<path d="M42.6885 75.4583C42.6885 71.1657 44.7655 67.3418 47.9998 64.8775C45.5516 63.0094 42.5235 61.9956 39.4058 62C31.7256 62 25.5 68.0254 25.5 75.4583C25.5 82.8912 31.7256 88.9166 39.4058 88.9166C42.5236 88.9212 45.5517 87.9073 48 86.0391C44.7659 83.5753 42.6885 79.7512 42.6885 75.4583Z" fill="#EB001B"/>
<path d="M69.7742 75.4583C69.7742 82.8912 63.5489 88.9167 55.8691 88.9167C52.7511 88.9211 49.7228 87.9072 47.2742 86.0391C50.5092 83.5749 52.5861 79.7512 52.5861 75.4583C52.5861 71.1655 50.5092 67.3418 47.2742 64.8775C49.7227 63.0095 52.751 61.9956 55.8689 62C63.5486 62 69.774 68.0254 69.774 75.4583" fill="#F79E1B"/>
</g>
<path d="M22.4936 109.364V121H20.3857V111.415H20.3175L17.5959 113.153V111.222L20.4879 109.364H22.4936ZM29.4936 121.159C28.736 121.159 28.058 121.017 27.4595 120.733C26.861 120.445 26.3857 120.051 26.0334 119.551C25.6849 119.051 25.4993 118.479 25.4766 117.835H27.522C27.5599 118.312 27.7663 118.703 28.1413 119.006C28.5163 119.305 28.9671 119.455 29.4936 119.455C29.9065 119.455 30.2739 119.36 30.5959 119.17C30.9179 118.981 31.1716 118.718 31.3572 118.381C31.5429 118.044 31.6338 117.659 31.63 117.227C31.6338 116.788 31.541 116.398 31.3516 116.057C31.1622 115.716 30.9027 115.449 30.5732 115.256C30.2436 115.059 29.8648 114.96 29.4368 114.96C29.0883 114.956 28.7455 115.021 28.4084 115.153C28.0713 115.286 27.8042 115.46 27.6072 115.676L25.7038 115.364L26.3118 109.364H33.0618V111.125H28.0561L27.7209 114.21H27.7891C28.005 113.956 28.3099 113.746 28.7038 113.58C29.0978 113.409 29.5296 113.324 29.9993 113.324C30.7038 113.324 31.3326 113.491 31.8857 113.824C32.4387 114.153 32.8743 114.608 33.1925 115.188C33.5107 115.767 33.6697 116.43 33.6697 117.176C33.6697 117.945 33.4917 118.631 33.1357 119.233C32.7834 119.831 32.2929 120.303 31.6641 120.648C31.0391 120.989 30.3156 121.159 29.4936 121.159ZM41.7947 118.818V118.205C41.7947 117.754 41.8894 117.339 42.0788 116.96C42.272 116.581 42.5523 116.277 42.9197 116.045C43.2872 115.814 43.7322 115.699 44.255 115.699C44.7929 115.699 45.2436 115.814 45.6072 116.045C45.9709 116.273 46.2455 116.576 46.4311 116.955C46.6205 117.333 46.7152 117.75 46.7152 118.205V118.818C46.7152 119.269 46.6205 119.684 46.4311 120.062C46.2417 120.441 45.9633 120.746 45.5959 120.977C45.2322 121.208 44.7853 121.324 44.255 121.324C43.7247 121.324 43.2758 121.208 42.9084 120.977C42.541 120.746 42.2625 120.441 42.0732 120.062C41.8875 119.684 41.7947 119.269 41.7947 118.818ZM43.2777 118.205V118.818C43.2777 119.117 43.3497 119.392 43.4936 119.642C43.6375 119.892 43.8913 120.017 44.255 120.017C44.6224 120.017 44.8743 119.894 45.0107 119.648C45.1508 119.398 45.2209 119.121 45.2209 118.818V118.205C45.2209 117.902 45.1546 117.625 45.022 117.375C44.8894 117.121 44.6338 116.994 44.255 116.994C43.8989 116.994 43.647 117.121 43.4993 117.375C43.3516 117.625 43.2777 117.902 43.2777 118.205ZM35.88 112.159V111.545C35.88 111.091 35.9766 110.674 36.1697 110.295C36.3629 109.917 36.6432 109.614 37.0107 109.386C37.3781 109.155 37.8232 109.04 38.3459 109.04C38.88 109.04 39.3288 109.155 39.6925 109.386C40.0599 109.614 40.3364 109.917 40.522 110.295C40.7076 110.674 40.8004 111.091 40.8004 111.545V112.159C40.8004 112.614 40.7057 113.03 40.5163 113.409C40.3307 113.784 40.0542 114.085 39.6868 114.312C39.3194 114.54 38.8724 114.653 38.3459 114.653C37.8118 114.653 37.361 114.54 36.9936 114.312C36.63 114.085 36.3535 113.782 36.1641 113.403C35.9747 113.025 35.88 112.61 35.88 112.159ZM37.3743 111.545V112.159C37.3743 112.462 37.4444 112.739 37.5845 112.989C37.7285 113.235 37.9822 113.358 38.3459 113.358C38.7095 113.358 38.9595 113.235 39.0959 112.989C39.236 112.739 39.3061 112.462 39.3061 112.159V111.545C39.3061 111.242 39.2398 110.966 39.1072 110.716C38.9747 110.462 38.7209 110.335 38.3459 110.335C37.986 110.335 37.7341 110.462 37.5902 110.716C37.4463 110.97 37.3743 111.246 37.3743 111.545ZM36.5277 121L44.5277 109.364H45.9482L37.9482 121H36.5277ZM59.7436 115.182C59.7436 116.451 59.5031 117.53 59.022 118.42C58.5447 119.311 57.8932 119.991 57.0675 120.46C56.2455 120.926 55.3213 121.159 54.2947 121.159C53.2607 121.159 52.3326 120.924 51.5107 120.455C50.6887 119.985 50.0391 119.305 49.5618 118.415C49.0845 117.525 48.8459 116.447 48.8459 115.182C48.8459 113.913 49.0845 112.833 49.5618 111.943C50.0391 111.053 50.6887 110.375 51.5107 109.909C52.3326 109.439 53.2607 109.205 54.2947 109.205C55.3213 109.205 56.2455 109.439 57.0675 109.909C57.8932 110.375 58.5447 111.053 59.022 111.943C59.5031 112.833 59.7436 113.913 59.7436 115.182ZM57.2493 115.182C57.2493 114.36 57.1262 113.667 56.88 113.102C56.6375 112.538 56.2947 112.11 55.8516 111.818C55.4084 111.527 54.8894 111.381 54.2947 111.381C53.7 111.381 53.1811 111.527 52.7379 111.818C52.2947 112.11 51.95 112.538 51.7038 113.102C51.4614 113.667 51.3402 114.36 51.3402 115.182C51.3402 116.004 51.4614 116.697 51.7038 117.261C51.95 117.826 52.2947 118.254 52.7379 118.545C53.1811 118.837 53.7 118.983 54.2947 118.983C54.8894 118.983 55.4084 118.837 55.8516 118.545C56.2947 118.254 56.6375 117.826 56.88 117.261C57.1262 116.697 57.2493 116.004 57.2493 115.182ZM61.5661 121V109.364H69.2706V111.392H64.0263V114.165H68.7592V116.193H64.0263V121H61.5661ZM70.9254 121V109.364H78.63V111.392H73.3857V114.165H78.1186V116.193H73.3857V121H70.9254Z" fill="#333333"/>
<path d="M117.534 57.3636V69H115.773V59.125H115.705L112.92 60.9432V59.2614L115.824 57.3636H117.534ZM124.523 69.1591C123.811 69.1591 123.17 69.0227 122.602 68.75C122.038 68.4735 121.587 68.0947 121.25 67.6136C120.913 67.1326 120.733 66.5833 120.71 65.9659H122.415C122.456 66.4659 122.678 66.8769 123.08 67.1989C123.481 67.5208 123.962 67.6818 124.523 67.6818C124.97 67.6818 125.366 67.5795 125.71 67.375C126.059 67.1667 126.331 66.8807 126.528 66.517C126.729 66.1534 126.83 65.7386 126.83 65.2727C126.83 64.7992 126.727 64.3769 126.523 64.0057C126.318 63.6345 126.036 63.3428 125.676 63.1307C125.32 62.9186 124.911 62.8106 124.449 62.8068C124.097 62.8068 123.742 62.8674 123.386 62.9886C123.03 63.1098 122.742 63.2689 122.523 63.4659L120.915 63.2273L121.568 57.3636H127.966V58.8693H123.028L122.659 62.125H122.727C122.955 61.9053 123.256 61.7216 123.631 61.5739C124.009 61.4261 124.415 61.3523 124.847 61.3523C125.555 61.3523 126.186 61.5208 126.739 61.858C127.295 62.1951 127.733 62.6553 128.051 63.2386C128.373 63.8182 128.532 64.4848 128.528 65.2386C128.532 65.9924 128.362 66.6648 128.017 67.2557C127.676 67.8466 127.203 68.3125 126.597 68.6534C125.994 68.9905 125.303 69.1591 124.523 69.1591ZM136.678 66.8182V66.2045C136.678 65.7652 136.768 65.3636 136.95 65C137.136 64.6326 137.405 64.339 137.757 64.1193C138.113 63.8958 138.543 63.7841 139.047 63.7841C139.562 63.7841 139.994 63.8939 140.342 64.1136C140.691 64.3333 140.954 64.6269 141.132 64.9943C141.314 65.3617 141.405 65.7652 141.405 66.2045V66.8182C141.405 67.2576 141.314 67.661 141.132 68.0284C140.95 68.392 140.683 68.6856 140.331 68.9091C139.982 69.1288 139.554 69.2386 139.047 69.2386C138.536 69.2386 138.104 69.1288 137.751 68.9091C137.399 68.6856 137.132 68.392 136.95 68.0284C136.768 67.661 136.678 67.2576 136.678 66.8182ZM138.001 66.2045V66.8182C138.001 67.1439 138.079 67.4394 138.234 67.7045C138.39 67.9697 138.661 68.1023 139.047 68.1023C139.429 68.1023 139.696 67.9697 139.848 67.7045C140 67.4394 140.075 67.1439 140.075 66.8182V66.2045C140.075 65.8788 140.001 65.5833 139.854 65.3182C139.71 65.053 139.441 64.9205 139.047 64.9205C138.668 64.9205 138.399 65.053 138.24 65.3182C138.081 65.5833 138.001 65.8788 138.001 66.2045ZM130.825 60.1591V59.5455C130.825 59.1061 130.916 58.7027 131.098 58.3352C131.284 57.9678 131.553 57.6742 131.905 57.4545C132.261 57.2348 132.691 57.125 133.195 57.125C133.71 57.125 134.142 57.2348 134.49 57.4545C134.839 57.6742 135.102 57.9678 135.28 58.3352C135.458 58.7027 135.547 59.1061 135.547 59.5455V60.1591C135.547 60.5985 135.456 61.0019 135.274 61.3693C135.096 61.733 134.831 62.0265 134.479 62.25C134.13 62.4697 133.702 62.5795 133.195 62.5795C132.679 62.5795 132.246 62.4697 131.893 62.25C131.545 62.0265 131.28 61.733 131.098 61.3693C130.916 61.0019 130.825 60.5985 130.825 60.1591ZM132.155 59.5455V60.1591C132.155 60.4848 132.231 60.7803 132.382 61.0455C132.537 61.3106 132.808 61.4432 133.195 61.4432C133.573 61.4432 133.839 61.3106 133.99 61.0455C134.145 60.7803 134.223 60.4848 134.223 60.1591V59.5455C134.223 59.2197 134.149 58.9242 134.001 58.6591C133.854 58.3939 133.585 58.2614 133.195 58.2614C132.816 58.2614 132.547 58.3939 132.388 58.6591C132.232 58.9242 132.155 59.2197 132.155 59.5455ZM131.365 69L139.365 57.3636H140.723L132.723 69H131.365ZM151.378 69.1705C150.673 69.1705 150.045 68.9905 149.491 68.6307C148.942 68.267 148.51 67.75 148.196 67.0795C147.885 66.4053 147.73 65.5966 147.73 64.6534C147.73 63.7102 147.887 62.9034 148.202 62.233C148.52 61.5625 148.955 61.0492 149.509 60.6932C150.062 60.3371 150.688 60.1591 151.389 60.1591C151.931 60.1591 152.366 60.25 152.696 60.4318C153.029 60.6098 153.287 60.8182 153.469 61.0568C153.654 61.2955 153.798 61.5057 153.901 61.6875H154.003V57.3636H155.702V69H154.043V67.642H153.901C153.798 67.8277 153.651 68.0398 153.457 68.2784C153.268 68.517 153.007 68.7254 152.673 68.9034C152.34 69.0814 151.908 69.1705 151.378 69.1705ZM151.753 67.7216C152.241 67.7216 152.654 67.5928 152.991 67.3352C153.332 67.0739 153.59 66.7121 153.764 66.25C153.942 65.7879 154.031 65.25 154.031 64.6364C154.031 64.0303 153.944 63.5 153.77 63.0455C153.596 62.5909 153.34 62.2367 153.003 61.983C152.666 61.7292 152.249 61.6023 151.753 61.6023C151.241 61.6023 150.815 61.7348 150.474 62C150.134 62.2652 149.876 62.6269 149.702 63.0852C149.531 63.5436 149.446 64.0606 149.446 64.6364C149.446 65.2197 149.533 65.7443 149.707 66.2102C149.882 66.6761 150.139 67.0455 150.48 67.3182C150.825 67.5871 151.249 67.7216 151.753 67.7216ZM158.126 69V60.2727H159.825V69H158.126ZM158.984 58.9261C158.689 58.9261 158.435 58.8277 158.223 58.6307C158.015 58.4299 157.911 58.1913 157.911 57.9148C157.911 57.6345 158.015 57.3958 158.223 57.1989C158.435 56.9981 158.689 56.8977 158.984 56.8977C159.28 56.8977 159.532 56.9981 159.74 57.1989C159.952 57.3958 160.058 57.6345 160.058 57.9148C160.058 58.1913 159.952 58.4299 159.74 58.6307C159.532 58.8277 159.28 58.9261 158.984 58.9261ZM168.651 62.4034L167.111 62.6761C167.046 62.4792 166.944 62.2917 166.804 62.1136C166.668 61.9356 166.482 61.7898 166.247 61.6761C166.012 61.5625 165.719 61.5057 165.366 61.5057C164.885 61.5057 164.484 61.6136 164.162 61.8295C163.84 62.0417 163.679 62.3163 163.679 62.6534C163.679 62.9451 163.787 63.1799 164.003 63.358C164.219 63.536 164.567 63.6818 165.048 63.7955L166.435 64.1136C167.238 64.2992 167.836 64.5852 168.23 64.9716C168.624 65.358 168.821 65.8598 168.821 66.4773C168.821 67 168.67 67.4659 168.366 67.875C168.067 68.2803 167.649 68.5985 167.111 68.8295C166.577 69.0606 165.957 69.1761 165.253 69.1761C164.276 69.1761 163.478 68.9678 162.861 68.5511C162.243 68.1307 161.865 67.5341 161.724 66.7614L163.366 66.5114C163.469 66.9394 163.679 67.2633 163.997 67.483C164.315 67.6989 164.73 67.8068 165.241 67.8068C165.798 67.8068 166.243 67.6913 166.577 67.4602C166.91 67.2254 167.077 66.9394 167.077 66.6023C167.077 66.3295 166.974 66.1004 166.77 65.9148C166.569 65.7292 166.26 65.589 165.844 65.4943L164.366 65.1705C163.552 64.9848 162.95 64.6894 162.56 64.2841C162.173 63.8788 161.98 63.3655 161.98 62.7443C161.98 62.2292 162.124 61.7784 162.412 61.392C162.7 61.0057 163.098 60.7045 163.605 60.4886C164.113 60.2689 164.694 60.1591 165.349 60.1591C166.293 60.1591 167.035 60.3636 167.577 60.7727C168.118 61.178 168.476 61.7216 168.651 62.4034ZM174.365 69.1761C173.52 69.1761 172.793 68.9848 172.183 68.6023C171.577 68.2159 171.111 67.6837 170.786 67.0057C170.46 66.3277 170.297 65.5511 170.297 64.6761C170.297 63.7898 170.464 63.0076 170.797 62.3295C171.13 61.6477 171.6 61.1155 172.206 60.733C172.812 60.3504 173.526 60.1591 174.348 60.1591C175.011 60.1591 175.602 60.2822 176.121 60.5284C176.64 60.7708 177.058 61.1117 177.376 61.5511C177.698 61.9905 177.89 62.5038 177.95 63.0909H176.297C176.206 62.6818 175.998 62.3295 175.672 62.0341C175.35 61.7386 174.918 61.5909 174.376 61.5909C173.903 61.5909 173.488 61.7159 173.132 61.9659C172.78 62.2121 172.505 62.5644 172.308 63.0227C172.111 63.4773 172.013 64.0152 172.013 64.6364C172.013 65.2727 172.109 65.822 172.303 66.2841C172.496 66.7462 172.768 67.1042 173.121 67.358C173.477 67.6117 173.895 67.7386 174.376 67.7386C174.698 67.7386 174.99 67.6799 175.251 67.5625C175.517 67.4413 175.738 67.2689 175.916 67.0455C176.098 66.822 176.225 66.553 176.297 66.2386H177.95C177.89 66.803 177.706 67.3068 177.399 67.75C177.092 68.1932 176.681 68.5417 176.166 68.7955C175.655 69.0492 175.054 69.1761 174.365 69.1761ZM183.443 69.1761C182.625 69.1761 181.911 68.9886 181.301 68.6136C180.691 68.2386 180.218 67.714 179.881 67.0398C179.544 66.3655 179.375 65.5777 179.375 64.6761C179.375 63.7708 179.544 62.9792 179.881 62.3011C180.218 61.6231 180.691 61.0966 181.301 60.7216C181.911 60.3466 182.625 60.1591 183.443 60.1591C184.261 60.1591 184.975 60.3466 185.585 60.7216C186.195 61.0966 186.669 61.6231 187.006 62.3011C187.343 62.9792 187.511 63.7708 187.511 64.6761C187.511 65.5777 187.343 66.3655 187.006 67.0398C186.669 67.714 186.195 68.2386 185.585 68.6136C184.975 68.9886 184.261 69.1761 183.443 69.1761ZM183.449 67.75C183.979 67.75 184.419 67.6098 184.767 67.3295C185.116 67.0492 185.373 66.6761 185.54 66.2102C185.71 65.7443 185.795 65.2311 185.795 64.6705C185.795 64.1136 185.71 63.6023 185.54 63.1364C185.373 62.6667 185.116 62.2898 184.767 62.0057C184.419 61.7216 183.979 61.5795 183.449 61.5795C182.915 61.5795 182.472 61.7216 182.119 62.0057C181.771 62.2898 181.511 62.6667 181.341 63.1364C181.174 63.6023 181.091 64.1136 181.091 64.6705C181.091 65.2311 181.174 65.7443 181.341 66.2102C181.511 66.6761 181.771 67.0492 182.119 67.3295C182.472 67.6098 182.915 67.75 183.449 67.75ZM194.936 65.3807V60.2727H196.641V69H194.97V67.4886H194.879C194.679 67.9545 194.357 68.3428 193.913 68.6534C193.474 68.9602 192.927 69.1136 192.271 69.1136C191.711 69.1136 191.214 68.9905 190.783 68.7443C190.355 68.4943 190.018 68.125 189.771 67.6364C189.529 67.1477 189.408 66.5436 189.408 65.8239V60.2727H191.107V65.6193C191.107 66.214 191.271 66.6875 191.601 67.0398C191.93 67.392 192.358 67.5682 192.885 67.5682C193.203 67.5682 193.519 67.4886 193.834 67.3295C194.152 67.1705 194.415 66.9299 194.624 66.608C194.836 66.286 194.94 65.8769 194.936 65.3807ZM200.622 63.8182V69H198.923V60.2727H200.554V61.6932H200.662C200.863 61.2311 201.177 60.8598 201.605 60.5795C202.037 60.2992 202.58 60.1591 203.236 60.1591C203.83 60.1591 204.351 60.2841 204.798 60.5341C205.245 60.7803 205.592 61.1477 205.838 61.6364C206.084 62.125 206.207 62.7292 206.207 63.4489V69H204.509V63.6534C204.509 63.0208 204.344 62.5265 204.014 62.1705C203.685 61.8106 203.232 61.6307 202.656 61.6307C202.262 61.6307 201.912 61.7159 201.605 61.8864C201.302 62.0568 201.062 62.3068 200.884 62.6364C200.709 62.9621 200.622 63.3561 200.622 63.8182ZM212.56 60.2727V61.6364H207.793V60.2727H212.56ZM209.071 58.1818H210.77V66.4375C210.77 66.767 210.819 67.0152 210.918 67.1818C211.016 67.3447 211.143 67.4564 211.298 67.517C211.457 67.5739 211.63 67.6023 211.815 67.6023C211.952 67.6023 212.071 67.5928 212.173 67.5739C212.276 67.5549 212.355 67.5398 212.412 67.5284L212.719 68.9318C212.62 68.9697 212.48 69.0076 212.298 69.0455C212.116 69.0871 211.889 69.1098 211.616 69.1136C211.17 69.1212 210.753 69.0417 210.366 68.875C209.98 68.7083 209.668 68.4508 209.429 68.1023C209.19 67.7538 209.071 67.3163 209.071 66.7898V58.1818ZM115.034 88L112.466 79.2727H114.222L115.932 85.6818H116.017L117.733 79.2727H119.489L121.193 85.6534H121.278L122.977 79.2727H124.733L122.17 88H120.438L118.665 81.6989H118.534L116.761 88H115.034ZM126.345 88V79.2727H128.044V88H126.345ZM127.203 77.9261C126.908 77.9261 126.654 77.8277 126.442 77.6307C126.233 77.4299 126.129 77.1913 126.129 76.9148C126.129 76.6345 126.233 76.3958 126.442 76.1989C126.654 75.9981 126.908 75.8977 127.203 75.8977C127.499 75.8977 127.75 75.9981 127.959 76.1989C128.171 76.3958 128.277 76.6345 128.277 76.9148C128.277 77.1913 128.171 77.4299 127.959 77.6307C127.75 77.8277 127.499 77.9261 127.203 77.9261ZM134.403 79.2727V80.6364H129.636V79.2727H134.403ZM130.915 77.1818H132.614V85.4375C132.614 85.767 132.663 86.0152 132.761 86.1818C132.86 86.3447 132.987 86.4564 133.142 86.517C133.301 86.5739 133.473 86.6023 133.659 86.6023C133.795 86.6023 133.915 86.5928 134.017 86.5739C134.119 86.5549 134.199 86.5398 134.256 86.5284L134.562 87.9318C134.464 87.9697 134.324 88.0076 134.142 88.0455C133.96 88.0871 133.733 88.1098 133.46 88.1136C133.013 88.1212 132.597 88.0417 132.21 87.875C131.824 87.7083 131.511 87.4508 131.273 87.1023C131.034 86.7538 130.915 86.3163 130.915 85.7898V77.1818ZM138.169 82.8182V88H136.47V76.3636H138.146V80.6932H138.254C138.459 80.2235 138.771 79.8504 139.192 79.5739C139.612 79.2973 140.161 79.1591 140.839 79.1591C141.438 79.1591 141.961 79.2822 142.408 79.5284C142.858 79.7746 143.207 80.142 143.453 80.6307C143.703 81.1155 143.828 81.7216 143.828 82.4489V88H142.129V82.6534C142.129 82.0133 141.964 81.517 141.635 81.1648C141.305 80.8087 140.847 80.6307 140.26 80.6307C139.858 80.6307 139.499 80.7159 139.18 80.8864C138.866 81.0568 138.618 81.3068 138.436 81.6364C138.258 81.9621 138.169 82.3561 138.169 82.8182ZM150.33 88V79.2727H151.96V80.6932H152.068C152.25 80.2121 152.547 79.8371 152.96 79.5682C153.373 79.2955 153.867 79.1591 154.443 79.1591C155.027 79.1591 155.515 79.2955 155.909 79.5682C156.307 79.8409 156.6 80.2159 156.79 80.6932H156.881C157.089 80.2273 157.42 79.8561 157.875 79.5795C158.33 79.2992 158.871 79.1591 159.5 79.1591C160.292 79.1591 160.938 79.4072 161.438 79.9034C161.941 80.3996 162.193 81.1477 162.193 82.1477V88H160.494V82.3068C160.494 81.7159 160.333 81.2879 160.011 81.0227C159.689 80.7576 159.305 80.625 158.858 80.625C158.305 80.625 157.875 80.7955 157.568 81.1364C157.261 81.4735 157.108 81.9072 157.108 82.4375V88H155.415V82.1989C155.415 81.7254 155.267 81.3447 154.972 81.0568C154.676 80.7689 154.292 80.625 153.818 80.625C153.496 80.625 153.199 80.7102 152.926 80.8807C152.657 81.0473 152.439 81.2803 152.273 81.5795C152.11 81.8788 152.028 82.2254 152.028 82.6193V88H150.33ZM167.01 88.1932C166.457 88.1932 165.957 88.0909 165.51 87.8864C165.063 87.678 164.709 87.3769 164.447 86.983C164.19 86.589 164.061 86.1061 164.061 85.5341C164.061 85.0417 164.156 84.6364 164.345 84.3182C164.535 84 164.79 83.7481 165.112 83.5625C165.434 83.3769 165.794 83.2367 166.192 83.142C166.589 83.0473 166.995 82.9754 167.408 82.9261C167.93 82.8655 168.355 82.8163 168.68 82.7784C169.006 82.7367 169.243 82.6705 169.391 82.5795C169.538 82.4886 169.612 82.3409 169.612 82.1364V82.0966C169.612 81.6004 169.472 81.2159 169.192 80.9432C168.915 80.6705 168.502 80.5341 167.953 80.5341C167.381 80.5341 166.93 80.661 166.601 80.9148C166.275 81.1648 166.05 81.4432 165.925 81.75L164.328 81.3864C164.518 80.8561 164.794 80.428 165.158 80.1023C165.525 79.7727 165.947 79.5341 166.425 79.3864C166.902 79.2348 167.404 79.1591 167.93 79.1591C168.279 79.1591 168.648 79.2008 169.038 79.2841C169.432 79.3636 169.8 79.5114 170.141 79.7273C170.485 79.9432 170.768 80.2519 170.987 80.6534C171.207 81.0511 171.317 81.5682 171.317 82.2045V88H169.658V86.8068H169.589C169.48 87.0265 169.315 87.2424 169.095 87.4545C168.875 87.6667 168.593 87.8428 168.249 87.983C167.904 88.1231 167.491 88.1932 167.01 88.1932ZM167.379 86.8295C167.849 86.8295 168.25 86.7367 168.584 86.5511C168.921 86.3655 169.177 86.1231 169.351 85.8239C169.529 85.5208 169.618 85.197 169.618 84.8523V83.7273C169.557 83.7879 169.44 83.8447 169.266 83.8977C169.095 83.947 168.9 83.9905 168.68 84.0284C168.461 84.0625 168.247 84.0947 168.038 84.125C167.83 84.1515 167.656 84.1742 167.516 84.1932C167.186 84.2348 166.885 84.3049 166.612 84.4034C166.343 84.5019 166.127 84.6439 165.964 84.8295C165.805 85.0114 165.726 85.2538 165.726 85.5568C165.726 85.9773 165.881 86.2955 166.192 86.5114C166.502 86.7235 166.898 86.8295 167.379 86.8295ZM180.119 81.4034L178.58 81.6761C178.515 81.4792 178.413 81.2917 178.273 81.1136C178.136 80.9356 177.951 80.7898 177.716 80.6761C177.481 80.5625 177.188 80.5057 176.835 80.5057C176.354 80.5057 175.953 80.6136 175.631 80.8295C175.309 81.0417 175.148 81.3163 175.148 81.6534C175.148 81.9451 175.256 82.1799 175.472 82.358C175.688 82.536 176.036 82.6818 176.517 82.7955L177.903 83.1136C178.706 83.2992 179.305 83.5852 179.699 83.9716C180.093 84.358 180.29 84.8598 180.29 85.4773C180.29 86 180.138 86.4659 179.835 86.875C179.536 87.2803 179.117 87.5985 178.58 87.8295C178.045 88.0606 177.426 88.1761 176.722 88.1761C175.744 88.1761 174.947 87.9678 174.33 87.5511C173.712 87.1307 173.333 86.5341 173.193 85.7614L174.835 85.5114C174.938 85.9394 175.148 86.2633 175.466 86.483C175.784 86.6989 176.199 86.8068 176.71 86.8068C177.267 86.8068 177.712 86.6913 178.045 86.4602C178.379 86.2254 178.545 85.9394 178.545 85.6023C178.545 85.3295 178.443 85.1004 178.239 84.9148C178.038 84.7292 177.729 84.589 177.312 84.4943L175.835 84.1705C175.021 83.9848 174.419 83.6894 174.028 83.2841C173.642 82.8788 173.449 82.3655 173.449 81.7443C173.449 81.2292 173.593 80.7784 173.881 80.392C174.169 80.0057 174.566 79.7045 175.074 79.4886C175.581 79.2689 176.163 79.1591 176.818 79.1591C177.761 79.1591 178.504 79.3636 179.045 79.7727C179.587 80.178 179.945 80.7216 180.119 81.4034ZM186.232 79.2727V80.6364H181.464V79.2727H186.232ZM182.743 77.1818H184.442V85.4375C184.442 85.767 184.491 86.0152 184.589 86.1818C184.688 86.3447 184.815 86.4564 184.97 86.517C185.129 86.5739 185.302 86.6023 185.487 86.6023C185.624 86.6023 185.743 86.5928 185.845 86.5739C185.947 86.5549 186.027 86.5398 186.084 86.5284L186.391 87.9318C186.292 87.9697 186.152 88.0076 185.97 88.0455C185.788 88.0871 185.561 88.1098 185.288 88.1136C184.841 88.1212 184.425 88.0417 184.038 87.875C183.652 87.7083 183.339 87.4508 183.101 87.1023C182.862 86.7538 182.743 86.3163 182.743 85.7898V77.1818ZM191.778 88.1761C190.919 88.1761 190.178 87.9924 189.557 87.625C188.939 87.2538 188.462 86.733 188.125 86.0625C187.792 85.3883 187.625 84.5985 187.625 83.6932C187.625 82.7992 187.792 82.0114 188.125 81.3295C188.462 80.6477 188.932 80.1155 189.534 79.733C190.14 79.3504 190.848 79.1591 191.659 79.1591C192.152 79.1591 192.629 79.2405 193.091 79.4034C193.553 79.5663 193.968 79.822 194.335 80.1705C194.703 80.5189 194.992 80.9716 195.205 81.5284C195.417 82.0814 195.523 82.7538 195.523 83.5455V84.1477H188.585V82.875H193.858C193.858 82.428 193.767 82.0322 193.585 81.6875C193.403 81.339 193.148 81.0644 192.818 80.8636C192.492 80.6629 192.11 80.5625 191.67 80.5625C191.193 80.5625 190.777 80.6799 190.42 80.9148C190.068 81.1458 189.795 81.4489 189.602 81.8239C189.413 82.1951 189.318 82.5985 189.318 83.0341V84.0284C189.318 84.6117 189.42 85.108 189.625 85.517C189.833 85.9261 190.123 86.2386 190.494 86.4545C190.866 86.6667 191.299 86.7727 191.795 86.7727C192.117 86.7727 192.411 86.7273 192.676 86.6364C192.941 86.5417 193.17 86.4015 193.364 86.2159C193.557 86.0303 193.705 85.8011 193.807 85.5284L195.415 85.8182C195.286 86.2917 195.055 86.7064 194.722 87.0625C194.392 87.4148 193.977 87.6894 193.477 87.8864C192.981 88.0795 192.415 88.1761 191.778 88.1761ZM197.408 88V79.2727H199.05V80.6591H199.141C199.3 80.1894 199.58 79.8201 199.982 79.5511C200.387 79.2784 200.845 79.142 201.357 79.142C201.463 79.142 201.588 79.1458 201.732 79.1534C201.879 79.161 201.995 79.1705 202.078 79.1818V80.8068C202.01 80.7879 201.889 80.767 201.714 80.7443C201.54 80.7178 201.366 80.7045 201.192 80.7045C200.79 80.7045 200.432 80.7898 200.118 80.9602C199.807 81.1269 199.561 81.3598 199.379 81.6591C199.197 81.9545 199.107 82.2917 199.107 82.6705V88H197.408ZM206.912 88.1761C206.067 88.1761 205.34 87.9848 204.73 87.6023C204.124 87.2159 203.658 86.6837 203.332 86.0057C203.007 85.3277 202.844 84.5511 202.844 83.6761C202.844 82.7898 203.01 82.0076 203.344 81.3295C203.677 80.6477 204.147 80.1155 204.753 79.733C205.359 79.3504 206.073 79.1591 206.895 79.1591C207.558 79.1591 208.149 79.2822 208.668 79.5284C209.187 79.7708 209.605 80.1117 209.923 80.5511C210.245 80.9905 210.437 81.5038 210.497 82.0909H208.844C208.753 81.6818 208.545 81.3295 208.219 81.0341C207.897 80.7386 207.465 80.5909 206.923 80.5909C206.45 80.5909 206.035 80.7159 205.679 80.9659C205.327 81.2121 205.052 81.5644 204.855 82.0227C204.658 82.4773 204.56 83.0152 204.56 83.6364C204.56 84.2727 204.656 84.822 204.849 85.2841C205.043 85.7462 205.315 86.1042 205.668 86.358C206.024 86.6117 206.442 86.7386 206.923 86.7386C207.245 86.7386 207.537 86.6799 207.798 86.5625C208.063 86.4413 208.285 86.2689 208.463 86.0455C208.645 85.822 208.772 85.553 208.844 85.2386H210.497C210.437 85.803 210.253 86.3068 209.946 86.75C209.639 87.1932 209.228 87.5417 208.713 87.7955C208.202 88.0492 207.601 88.1761 206.912 88.1761ZM214.854 88.1932C214.301 88.1932 213.801 88.0909 213.354 87.8864C212.907 87.678 212.553 87.3769 212.291 86.983C212.034 86.589 211.905 86.1061 211.905 85.5341C211.905 85.0417 212 84.6364 212.189 84.3182C212.378 84 212.634 83.7481 212.956 83.5625C213.278 83.3769 213.638 83.2367 214.036 83.142C214.433 83.0473 214.839 82.9754 215.251 82.9261C215.774 82.8655 216.198 82.8163 216.524 82.7784C216.85 82.7367 217.087 82.6705 217.234 82.5795C217.382 82.4886 217.456 82.3409 217.456 82.1364V82.0966C217.456 81.6004 217.316 81.2159 217.036 80.9432C216.759 80.6705 216.346 80.5341 215.797 80.5341C215.225 80.5341 214.774 80.661 214.445 80.9148C214.119 81.1648 213.893 81.4432 213.768 81.75L212.172 81.3864C212.361 80.8561 212.638 80.428 213.001 80.1023C213.369 79.7727 213.791 79.5341 214.268 79.3864C214.746 79.2348 215.248 79.1591 215.774 79.1591C216.123 79.1591 216.492 79.2008 216.882 79.2841C217.276 79.3636 217.643 79.5114 217.984 79.7273C218.329 79.9432 218.611 80.2519 218.831 80.6534C219.051 81.0511 219.161 81.5682 219.161 82.2045V88H217.501V86.8068H217.433C217.323 87.0265 217.159 87.2424 216.939 87.4545C216.719 87.6667 216.437 87.8428 216.092 87.983C215.748 88.1231 215.335 88.1932 214.854 88.1932ZM215.223 86.8295C215.693 86.8295 216.094 86.7367 216.428 86.5511C216.765 86.3655 217.02 86.1231 217.195 85.8239C217.373 85.5208 217.462 85.197 217.462 84.8523V83.7273C217.401 83.7879 217.284 83.8447 217.109 83.8977C216.939 83.947 216.744 83.9905 216.524 84.0284C216.304 84.0625 216.09 84.0947 215.882 84.125C215.674 84.1515 215.5 84.1742 215.359 84.1932C215.03 84.2348 214.729 84.3049 214.456 84.4034C214.187 84.5019 213.971 84.6439 213.808 84.8295C213.649 85.0114 213.57 85.2538 213.57 85.5568C213.57 85.9773 213.725 86.2955 214.036 86.5114C214.346 86.7235 214.742 86.8295 215.223 86.8295ZM221.423 88V79.2727H223.065V80.6591H223.156C223.315 80.1894 223.596 79.8201 223.997 79.5511C224.402 79.2784 224.861 79.142 225.372 79.142C225.478 79.142 225.603 79.1458 225.747 79.1534C225.895 79.161 226.01 79.1705 226.094 79.1818V80.8068C226.026 80.7879 225.904 80.767 225.73 80.7443C225.556 80.7178 225.382 80.7045 225.207 80.7045C224.806 80.7045 224.448 80.7898 224.134 80.9602C223.823 81.1269 223.577 81.3598 223.395 81.6591C223.213 81.9545 223.122 82.2917 223.122 82.6705V88H221.423ZM230.518 88.1705C229.814 88.1705 229.185 87.9905 228.632 87.6307C228.083 87.267 227.651 86.75 227.337 86.0795C227.026 85.4053 226.871 84.5966 226.871 83.6534C226.871 82.7102 227.028 81.9034 227.342 81.233C227.661 80.5625 228.096 80.0492 228.649 79.6932C229.202 79.3371 229.829 79.1591 230.53 79.1591C231.071 79.1591 231.507 79.25 231.837 79.4318C232.17 79.6098 232.428 79.8182 232.609 80.0568C232.795 80.2955 232.939 80.5057 233.041 80.6875H233.143V76.3636H234.842V88H233.183V86.642H233.041C232.939 86.8277 232.791 87.0398 232.598 87.2784C232.409 87.517 232.147 87.7254 231.814 87.9034C231.481 88.0814 231.049 88.1705 230.518 88.1705ZM230.893 86.7216C231.382 86.7216 231.795 86.5928 232.132 86.3352C232.473 86.0739 232.731 85.7121 232.905 85.25C233.083 84.7879 233.172 84.25 233.172 83.6364C233.172 83.0303 233.085 82.5 232.911 82.0455C232.736 81.5909 232.481 81.2367 232.143 80.983C231.806 80.7292 231.39 80.6023 230.893 80.6023C230.382 80.6023 229.956 80.7348 229.615 81C229.274 81.2652 229.017 81.6269 228.842 82.0852C228.672 82.5436 228.587 83.0606 228.587 83.6364C228.587 84.2197 228.674 84.7443 228.848 85.2102C229.022 85.6761 229.28 86.0455 229.621 86.3182C229.965 86.5871 230.39 86.7216 230.893 86.7216Z" fill="#191919"/>
<path d="M113.352 112V101.818H114.282V111.165H119.134V112H113.352ZM124.011 112.159C123.352 112.159 122.768 111.992 122.261 111.657C121.758 111.322 121.363 110.86 121.078 110.27C120.793 109.677 120.651 108.992 120.651 108.217C120.651 107.434 120.793 106.747 121.078 106.153C121.363 105.557 121.758 105.093 122.261 104.761C122.768 104.427 123.352 104.259 124.011 104.259C124.671 104.259 125.253 104.427 125.756 104.761C126.26 105.096 126.655 105.56 126.94 106.153C127.228 106.747 127.372 107.434 127.372 108.217C127.372 108.992 127.23 109.677 126.945 110.27C126.66 110.86 126.263 111.322 125.756 111.657C125.253 111.992 124.671 112.159 124.011 112.159ZM124.011 111.349C124.542 111.349 124.991 111.206 125.359 110.921C125.727 110.636 126.005 110.257 126.194 109.783C126.386 109.309 126.482 108.787 126.482 108.217C126.482 107.647 126.386 107.123 126.194 106.646C126.005 106.168 125.727 105.786 125.359 105.497C124.991 105.209 124.542 105.065 124.011 105.065C123.484 105.065 123.035 105.209 122.664 105.497C122.296 105.786 122.016 106.168 121.824 106.646C121.635 107.123 121.54 107.647 121.54 108.217C121.54 108.787 121.635 109.309 121.824 109.783C122.016 110.257 122.296 110.636 122.664 110.921C123.032 111.206 123.481 111.349 124.011 111.349ZM129.315 112V104.364H130.175V105.537H130.24C130.392 105.152 130.657 104.843 131.035 104.607C131.416 104.369 131.847 104.249 132.328 104.249C132.401 104.249 132.482 104.251 132.571 104.254C132.661 104.258 132.735 104.261 132.795 104.264V105.164C132.755 105.157 132.686 105.147 132.586 105.134C132.487 105.121 132.379 105.114 132.263 105.114C131.865 105.114 131.511 105.199 131.199 105.368C130.891 105.534 130.647 105.764 130.468 106.059C130.289 106.354 130.2 106.69 130.2 107.068V112H129.315ZM137.16 112.159C136.447 112.159 135.831 111.993 135.311 111.662C134.79 111.327 134.387 110.865 134.102 110.275C133.821 109.682 133.68 108.999 133.68 108.227C133.68 107.458 133.821 106.775 134.102 106.178C134.387 105.578 134.78 105.109 135.281 104.771C135.785 104.43 136.366 104.259 137.026 104.259C137.44 104.259 137.839 104.335 138.224 104.488C138.608 104.637 138.953 104.867 139.258 105.179C139.566 105.487 139.81 105.877 139.989 106.347C140.168 106.815 140.257 107.368 140.257 108.008V108.445H134.291V107.665H139.352C139.352 107.174 139.253 106.733 139.054 106.342C138.859 105.948 138.585 105.636 138.234 105.408C137.886 105.179 137.483 105.065 137.026 105.065C136.542 105.065 136.116 105.194 135.748 105.452C135.38 105.711 135.092 106.052 134.883 106.477C134.677 106.901 134.573 107.365 134.57 107.869V108.336C134.57 108.942 134.674 109.473 134.883 109.927C135.095 110.378 135.395 110.727 135.783 110.976C136.171 111.224 136.63 111.349 137.16 111.349C137.521 111.349 137.838 111.292 138.11 111.18C138.385 111.067 138.615 110.916 138.801 110.727C138.99 110.535 139.132 110.325 139.228 110.096L140.068 110.369C139.952 110.691 139.762 110.987 139.497 111.259C139.235 111.531 138.907 111.75 138.512 111.915C138.121 112.078 137.67 112.159 137.16 112.159ZM142.207 112V104.364H143.067V105.537H143.147C143.299 105.143 143.553 104.833 143.908 104.607C144.266 104.379 144.695 104.264 145.195 104.264C145.722 104.264 146.155 104.388 146.493 104.637C146.834 104.882 147.089 105.22 147.259 105.651H147.323C147.496 105.227 147.776 104.891 148.163 104.642C148.554 104.39 149.028 104.264 149.585 104.264C150.295 104.264 150.855 104.488 151.266 104.935C151.677 105.379 151.882 106.029 151.882 106.884V112H150.997V106.884C150.997 106.281 150.843 105.829 150.535 105.527C150.227 105.225 149.821 105.075 149.317 105.075C148.733 105.075 148.284 105.254 147.969 105.612C147.655 105.969 147.497 106.424 147.497 106.974V112H146.592V106.805C146.592 106.288 146.448 105.87 146.16 105.552C145.871 105.234 145.465 105.075 144.942 105.075C144.59 105.075 144.274 105.161 143.992 105.333C143.714 105.505 143.493 105.746 143.331 106.054C143.172 106.359 143.092 106.71 143.092 107.108V112H142.207ZM158.172 112V104.364H159.062V112H158.172ZM158.625 103.051C158.443 103.051 158.287 102.99 158.157 102.867C158.028 102.741 157.964 102.59 157.964 102.415C157.964 102.239 158.028 102.09 158.157 101.967C158.287 101.841 158.443 101.778 158.625 101.778C158.807 101.778 158.963 101.841 159.092 101.967C159.221 102.09 159.286 102.239 159.286 102.415C159.286 102.59 159.221 102.741 159.092 102.867C158.963 102.99 158.807 103.051 158.625 103.051ZM161.403 114.864V104.364H162.263V105.82H162.367C162.473 105.592 162.619 105.358 162.805 105.119C162.99 104.877 163.236 104.674 163.54 104.508C163.849 104.342 164.237 104.259 164.704 104.259C165.334 104.259 165.884 104.425 166.354 104.756C166.828 105.085 167.196 105.545 167.458 106.138C167.723 106.728 167.856 107.416 167.856 108.202C167.856 108.991 167.723 109.682 167.458 110.275C167.196 110.868 166.828 111.33 166.354 111.662C165.884 111.993 165.337 112.159 164.714 112.159C164.253 112.159 163.867 112.076 163.555 111.911C163.247 111.745 162.997 111.541 162.805 111.299C162.616 111.054 162.47 110.815 162.367 110.583H162.288V114.864H161.403ZM162.278 108.187C162.278 108.803 162.369 109.35 162.551 109.827C162.737 110.301 163.002 110.674 163.347 110.946C163.695 111.214 164.116 111.349 164.609 111.349C165.116 111.349 165.544 111.21 165.892 110.931C166.243 110.649 166.51 110.27 166.692 109.793C166.878 109.315 166.971 108.78 166.971 108.187C166.971 107.6 166.88 107.071 166.697 106.601C166.518 106.13 166.253 105.757 165.902 105.482C165.551 105.204 165.12 105.065 164.609 105.065C164.112 105.065 163.69 105.199 163.342 105.467C162.994 105.732 162.728 106.1 162.546 106.571C162.367 107.038 162.278 107.577 162.278 108.187ZM174.928 106.039L174.118 106.268C174.038 106.039 173.925 105.832 173.779 105.646C173.634 105.461 173.443 105.313 173.208 105.204C172.976 105.094 172.687 105.04 172.343 105.04C171.826 105.04 171.401 105.162 171.07 105.408C170.739 105.653 170.573 105.969 170.573 106.357C170.573 106.685 170.685 106.952 170.911 107.158C171.14 107.36 171.491 107.521 171.965 107.64L173.118 107.923C173.758 108.079 174.237 108.326 174.555 108.664C174.877 109.002 175.037 109.426 175.037 109.937C175.037 110.368 174.918 110.75 174.679 111.085C174.441 111.42 174.108 111.683 173.68 111.876C173.256 112.065 172.764 112.159 172.203 112.159C171.458 112.159 170.843 111.992 170.359 111.657C169.875 111.319 169.565 110.832 169.429 110.195L170.279 109.987C170.389 110.441 170.603 110.784 170.921 111.016C171.242 111.248 171.665 111.364 172.189 111.364C172.775 111.364 173.244 111.233 173.596 110.971C173.947 110.706 174.123 110.374 174.123 109.977C174.123 109.668 174.02 109.41 173.814 109.201C173.609 108.989 173.297 108.833 172.88 108.734L171.632 108.435C170.969 108.276 170.478 108.024 170.16 107.68C169.842 107.335 169.683 106.907 169.683 106.397C169.683 105.976 169.797 105.607 170.026 105.288C170.255 104.967 170.569 104.715 170.971 104.533C171.372 104.35 171.829 104.259 172.343 104.259C173.042 104.259 173.6 104.418 174.018 104.737C174.439 105.051 174.742 105.486 174.928 106.039ZM181.827 109.082V104.364H182.712V112H181.827V110.732H181.758C181.579 111.123 181.295 111.45 180.907 111.712C180.52 111.97 180.046 112.099 179.486 112.099C178.998 112.099 178.566 111.993 178.188 111.781C177.81 111.566 177.514 111.251 177.298 110.837C177.083 110.422 176.975 109.914 176.975 109.31V104.364H177.86V109.256C177.86 109.852 178.036 110.333 178.387 110.697C178.738 111.059 179.189 111.239 179.739 111.239C180.084 111.239 180.415 111.156 180.733 110.991C181.052 110.825 181.314 110.583 181.519 110.265C181.724 109.943 181.827 109.549 181.827 109.082ZM185.055 112V104.364H185.915V105.537H185.995C186.147 105.143 186.401 104.833 186.755 104.607C187.113 104.379 187.542 104.264 188.043 104.264C188.57 104.264 189.002 104.388 189.341 104.637C189.682 104.882 189.937 105.22 190.106 105.651H190.171C190.343 105.227 190.623 104.891 191.011 104.642C191.402 104.39 191.876 104.264 192.433 104.264C193.142 104.264 193.702 104.488 194.113 104.935C194.524 105.379 194.73 106.029 194.73 106.884V112H193.845V106.884C193.845 106.281 193.691 105.829 193.382 105.527C193.074 105.225 192.668 105.075 192.164 105.075C191.581 105.075 191.132 105.254 190.817 105.612C190.502 105.969 190.345 106.424 190.345 106.974V112H189.44V106.805C189.44 106.288 189.296 105.87 189.007 105.552C188.719 105.234 188.313 105.075 187.789 105.075C187.438 105.075 187.122 105.161 186.84 105.333C186.561 105.505 186.341 105.746 186.179 106.054C186.02 106.359 185.94 106.71 185.94 107.108V112H185.055ZM203.759 112.159C203.133 112.159 202.584 111.993 202.114 111.662C201.643 111.33 201.275 110.868 201.01 110.275C200.748 109.682 200.617 108.991 200.617 108.202C200.617 107.416 200.748 106.728 201.01 106.138C201.275 105.545 201.645 105.085 202.119 104.756C202.593 104.425 203.145 104.259 203.774 104.259C204.238 104.259 204.624 104.342 204.933 104.508C205.241 104.67 205.488 104.872 205.673 105.114C205.859 105.356 206.003 105.592 206.106 105.82H206.186V101.818H207.075V112H206.21V110.583H206.106C206.003 110.815 205.857 111.054 205.669 111.299C205.48 111.541 205.229 111.745 204.918 111.911C204.61 112.076 204.223 112.159 203.759 112.159ZM203.864 111.349C204.358 111.349 204.779 111.214 205.127 110.946C205.475 110.674 205.74 110.301 205.922 109.827C206.108 109.35 206.2 108.803 206.2 108.187C206.2 107.577 206.109 107.038 205.927 106.571C205.745 106.1 205.48 105.732 205.132 105.467C204.784 105.199 204.361 105.065 203.864 105.065C203.353 105.065 202.923 105.204 202.571 105.482C202.223 105.757 201.958 106.13 201.776 106.601C201.597 107.071 201.507 107.6 201.507 108.187C201.507 108.78 201.598 109.315 201.781 109.793C201.963 110.27 202.228 110.649 202.576 110.931C202.927 111.21 203.357 111.349 203.864 111.349ZM212.564 112.159C211.905 112.159 211.321 111.992 210.814 111.657C210.31 111.322 209.916 110.86 209.631 110.27C209.346 109.677 209.203 108.992 209.203 108.217C209.203 107.434 209.346 106.747 209.631 106.153C209.916 105.557 210.31 105.093 210.814 104.761C211.321 104.427 211.905 104.259 212.564 104.259C213.224 104.259 213.805 104.427 214.309 104.761C214.813 105.096 215.207 105.56 215.492 106.153C215.781 106.747 215.925 107.434 215.925 108.217C215.925 108.992 215.782 109.677 215.497 110.27C215.212 110.86 214.816 111.322 214.309 111.657C213.805 111.992 213.224 112.159 212.564 112.159ZM212.564 111.349C213.094 111.349 213.544 111.206 213.911 110.921C214.279 110.636 214.558 110.257 214.747 109.783C214.939 109.309 215.035 108.787 215.035 108.217C215.035 107.647 214.939 107.123 214.747 106.646C214.558 106.168 214.279 105.786 213.911 105.497C213.544 105.209 213.094 105.065 212.564 105.065C212.037 105.065 211.588 105.209 211.217 105.497C210.849 105.786 210.569 106.168 210.377 106.646C210.188 107.123 210.093 107.647 210.093 108.217C210.093 108.787 210.188 109.309 210.377 109.783C210.569 110.257 210.849 110.636 211.217 110.921C211.585 111.206 212.034 111.349 212.564 111.349ZM218.752 101.818V112H217.868V101.818H218.752ZM224.062 112.159C223.403 112.159 222.819 111.992 222.312 111.657C221.808 111.322 221.414 110.86 221.129 110.27C220.844 109.677 220.701 108.992 220.701 108.217C220.701 107.434 220.844 106.747 221.129 106.153C221.414 105.557 221.808 105.093 222.312 104.761C222.819 104.427 223.403 104.259 224.062 104.259C224.722 104.259 225.303 104.427 225.807 104.761C226.311 105.096 226.705 105.56 226.99 106.153C227.279 106.747 227.423 107.434 227.423 108.217C227.423 108.992 227.28 109.677 226.995 110.27C226.71 110.86 226.314 111.322 225.807 111.657C225.303 111.992 224.722 112.159 224.062 112.159ZM224.062 111.349C224.592 111.349 225.042 111.206 225.409 110.921C225.777 110.636 226.056 110.257 226.245 109.783C226.437 109.309 226.533 108.787 226.533 108.217C226.533 107.647 226.437 107.123 226.245 106.646C226.056 106.168 225.777 105.786 225.409 105.497C225.042 105.209 224.592 105.065 224.062 105.065C223.535 105.065 223.086 105.209 222.715 105.497C222.347 105.786 222.067 106.168 221.875 106.646C221.686 107.123 221.591 107.647 221.591 108.217C221.591 108.787 221.686 109.309 221.875 109.783C222.067 110.257 222.347 110.636 222.715 110.921C223.083 111.206 223.532 111.349 224.062 111.349ZM229.366 112V104.364H230.226V105.537H230.29C230.443 105.152 230.708 104.843 231.086 104.607C231.467 104.369 231.898 104.249 232.378 104.249C232.451 104.249 232.532 104.251 232.622 104.254C232.711 104.258 232.786 104.261 232.846 104.264V105.164C232.806 105.157 232.736 105.147 232.637 105.134C232.537 105.121 232.43 105.114 232.314 105.114C231.916 105.114 231.561 105.199 231.25 105.368C230.942 105.534 230.698 105.764 230.519 106.059C230.34 106.354 230.251 106.69 230.251 107.068V112H229.366ZM118.299 124.039L117.489 124.268C117.409 124.039 117.296 123.832 117.151 123.646C117.005 123.461 116.814 123.313 116.579 123.204C116.347 123.094 116.058 123.04 115.714 123.04C115.197 123.04 114.772 123.162 114.441 123.408C114.11 123.653 113.944 123.969 113.944 124.357C113.944 124.685 114.057 124.952 114.282 125.158C114.511 125.36 114.862 125.521 115.336 125.64L116.489 125.923C117.129 126.079 117.608 126.326 117.926 126.664C118.248 127.002 118.408 127.426 118.408 127.937C118.408 128.368 118.289 128.75 118.05 129.085C117.812 129.42 117.479 129.683 117.051 129.876C116.627 130.065 116.135 130.159 115.575 130.159C114.829 130.159 114.214 129.992 113.73 129.657C113.246 129.319 112.936 128.832 112.8 128.195L113.651 127.987C113.76 128.441 113.974 128.784 114.292 129.016C114.613 129.248 115.036 129.364 115.56 129.364C116.146 129.364 116.615 129.233 116.967 128.971C117.318 128.706 117.494 128.374 117.494 127.977C117.494 127.668 117.391 127.41 117.185 127.201C116.98 126.989 116.668 126.833 116.251 126.734L115.003 126.435C114.34 126.276 113.849 126.024 113.531 125.68C113.213 125.335 113.054 124.907 113.054 124.397C113.054 123.976 113.168 123.607 113.397 123.288C113.626 122.967 113.941 122.715 114.342 122.533C114.743 122.35 115.2 122.259 115.714 122.259C116.413 122.259 116.972 122.418 117.389 122.737C117.81 123.051 118.113 123.486 118.299 124.039ZM120.356 130V122.364H121.246V130H120.356ZM120.808 121.051C120.626 121.051 120.47 120.99 120.341 120.867C120.212 120.741 120.147 120.59 120.147 120.415C120.147 120.239 120.212 120.09 120.341 119.967C120.47 119.841 120.626 119.778 120.808 119.778C120.991 119.778 121.146 119.841 121.276 119.967C121.405 120.09 121.47 120.239 121.47 120.415C121.47 120.59 121.405 120.741 121.276 120.867C121.146 120.99 120.991 121.051 120.808 121.051ZM126.594 122.364V123.134H122.95V122.364H126.594ZM124.088 120.534H124.978V128.006C124.978 128.325 125.033 128.575 125.142 128.757C125.252 128.936 125.394 129.064 125.57 129.14C125.746 129.213 125.933 129.249 126.132 129.249C126.248 129.249 126.347 129.243 126.43 129.229C126.513 129.213 126.586 129.196 126.649 129.18L126.838 129.98C126.752 130.013 126.645 130.043 126.52 130.07C126.394 130.099 126.238 130.114 126.052 130.114C125.727 130.114 125.414 130.043 125.113 129.901C124.814 129.758 124.569 129.546 124.377 129.264C124.185 128.982 124.088 128.633 124.088 128.215V120.534ZM134.674 130.174C134.213 130.174 133.793 130.085 133.411 129.906C133.03 129.723 132.727 129.461 132.502 129.12C132.276 128.775 132.164 128.358 132.164 127.867C132.164 127.489 132.235 127.171 132.377 126.913C132.52 126.654 132.722 126.442 132.984 126.276C133.246 126.111 133.556 125.98 133.914 125.884C134.271 125.787 134.666 125.713 135.097 125.66C135.524 125.607 135.886 125.56 136.181 125.521C136.479 125.481 136.706 125.418 136.862 125.332C137.017 125.246 137.095 125.106 137.095 124.914V124.735C137.095 124.215 136.94 123.805 136.628 123.507C136.32 123.205 135.876 123.055 135.296 123.055C134.745 123.055 134.296 123.176 133.948 123.418C133.604 123.66 133.362 123.945 133.222 124.273L132.382 123.969C132.555 123.552 132.793 123.219 133.098 122.97C133.403 122.718 133.744 122.538 134.122 122.428C134.5 122.316 134.883 122.259 135.271 122.259C135.562 122.259 135.866 122.297 136.181 122.374C136.499 122.45 136.794 122.582 137.066 122.771C137.337 122.957 137.558 123.217 137.727 123.552C137.896 123.883 137.98 124.304 137.98 124.815V130H137.095V128.792H137.041C136.935 129.017 136.777 129.236 136.568 129.448C136.36 129.66 136.098 129.834 135.783 129.97C135.468 130.106 135.098 130.174 134.674 130.174ZM134.794 129.364C135.264 129.364 135.672 129.259 136.017 129.05C136.361 128.842 136.626 128.565 136.812 128.22C137.001 127.872 137.095 127.489 137.095 127.072V125.968C137.029 126.031 136.918 126.087 136.762 126.137C136.61 126.187 136.432 126.232 136.23 126.271C136.031 126.308 135.833 126.339 135.634 126.366C135.435 126.392 135.256 126.415 135.097 126.435C134.666 126.488 134.298 126.571 133.993 126.684C133.688 126.797 133.454 126.952 133.292 127.151C133.13 127.347 133.048 127.599 133.048 127.907C133.048 128.371 133.214 128.731 133.546 128.986C133.877 129.238 134.293 129.364 134.794 129.364ZM140.334 130V122.364H141.194V123.537H141.274C141.426 123.143 141.68 122.833 142.035 122.607C142.393 122.379 142.822 122.264 143.322 122.264C143.849 122.264 144.282 122.388 144.62 122.637C144.961 122.882 145.216 123.22 145.385 123.651H145.45C145.622 123.227 145.903 122.891 146.29 122.642C146.681 122.39 147.155 122.264 147.712 122.264C148.421 122.264 148.982 122.488 149.393 122.935C149.804 123.379 150.009 124.029 150.009 124.884V130H149.124V124.884C149.124 124.281 148.97 123.829 148.662 123.527C148.354 123.225 147.948 123.075 147.444 123.075C146.86 123.075 146.411 123.254 146.096 123.612C145.782 123.969 145.624 124.424 145.624 124.974V130H144.719V124.805C144.719 124.288 144.575 123.87 144.287 123.552C143.998 123.234 143.592 123.075 143.069 123.075C142.717 123.075 142.401 123.161 142.119 123.333C141.841 123.505 141.62 123.746 141.458 124.054C141.299 124.359 141.219 124.71 141.219 125.108V130H140.334ZM159.377 130.159C158.664 130.159 158.048 129.993 157.527 129.662C157.007 129.327 156.604 128.865 156.319 128.275C156.038 127.682 155.897 126.999 155.897 126.227C155.897 125.458 156.038 124.775 156.319 124.178C156.604 123.578 156.997 123.109 157.498 122.771C158.001 122.43 158.583 122.259 159.243 122.259C159.657 122.259 160.056 122.335 160.441 122.488C160.825 122.637 161.17 122.867 161.475 123.179C161.783 123.487 162.027 123.877 162.206 124.347C162.385 124.815 162.474 125.368 162.474 126.008V126.445H156.508V125.665H161.569C161.569 125.174 161.47 124.733 161.271 124.342C161.075 123.948 160.802 123.636 160.451 123.408C160.103 123.179 159.7 123.065 159.243 123.065C158.759 123.065 158.333 123.194 157.965 123.452C157.597 123.711 157.309 124.052 157.1 124.477C156.894 124.901 156.79 125.365 156.787 125.869V126.336C156.787 126.942 156.891 127.473 157.1 127.927C157.312 128.378 157.612 128.727 158 128.976C158.387 129.224 158.846 129.349 159.377 129.349C159.738 129.349 160.055 129.292 160.326 129.18C160.601 129.067 160.832 128.916 161.017 128.727C161.206 128.535 161.349 128.325 161.445 128.096L162.285 128.369C162.169 128.691 161.979 128.987 161.713 129.259C161.452 129.531 161.123 129.75 160.729 129.915C160.338 130.078 159.887 130.159 159.377 130.159ZM167.432 122.364V123.134H163.788V122.364H167.432ZM164.926 120.534H165.816V128.006C165.816 128.325 165.871 128.575 165.98 128.757C166.09 128.936 166.232 129.064 166.408 129.14C166.584 129.213 166.771 129.249 166.97 129.249C167.086 129.249 167.185 129.243 167.268 129.229C167.351 129.213 167.424 129.196 167.487 129.18L167.676 129.98C167.589 130.013 167.483 130.043 167.357 130.07C167.231 130.099 167.076 130.114 166.89 130.114C166.565 130.114 166.252 130.043 165.95 129.901C165.652 129.758 165.407 129.546 165.215 129.264C165.022 128.982 164.926 128.633 164.926 128.215V120.534ZM172.447 130.159C171.734 130.159 171.118 129.993 170.598 129.662C170.077 129.327 169.675 128.865 169.39 128.275C169.108 127.682 168.967 126.999 168.967 126.227C168.967 125.458 169.108 124.775 169.39 124.178C169.675 123.578 170.067 123.109 170.568 122.771C171.072 122.43 171.653 122.259 172.313 122.259C172.727 122.259 173.127 122.335 173.511 122.488C173.895 122.637 174.24 122.867 174.545 123.179C174.853 123.487 175.097 123.877 175.276 124.347C175.455 124.815 175.544 125.368 175.544 126.008V126.445H169.578V125.665H174.64C174.64 125.174 174.54 124.733 174.341 124.342C174.146 123.948 173.872 123.636 173.521 123.408C173.173 123.179 172.77 123.065 172.313 123.065C171.829 123.065 171.403 123.194 171.035 123.452C170.667 123.711 170.379 124.052 170.17 124.477C169.965 124.901 169.86 125.365 169.857 125.869V126.336C169.857 126.942 169.961 127.473 170.17 127.927C170.382 128.378 170.682 128.727 171.07 128.976C171.458 129.224 171.917 129.349 172.447 129.349C172.808 129.349 173.125 129.292 173.397 129.18C173.672 129.067 173.902 128.916 174.088 128.727C174.277 128.535 174.419 128.325 174.515 128.096L175.355 128.369C175.239 128.691 175.049 128.987 174.784 129.259C174.522 129.531 174.194 129.75 173.799 129.915C173.408 130.078 172.958 130.159 172.447 130.159ZM180.502 122.364V123.134H176.858V122.364H180.502ZM177.997 120.534H178.887V128.006C178.887 128.325 178.941 128.575 179.051 128.757C179.16 128.936 179.302 129.064 179.478 129.14C179.654 129.213 179.841 129.249 180.04 129.249C180.156 129.249 180.255 129.243 180.338 129.229C180.421 129.213 180.494 129.196 180.557 129.18L180.746 129.98C180.66 130.013 180.554 130.043 180.428 130.07C180.302 130.099 180.146 130.114 179.96 130.114C179.636 130.114 179.322 130.043 179.021 129.901C178.722 129.758 178.477 129.546 178.285 129.264C178.093 128.982 177.997 128.633 177.997 128.215V120.534ZM188.582 130.174C188.122 130.174 187.701 130.085 187.32 129.906C186.938 129.723 186.635 129.461 186.41 129.12C186.184 128.775 186.072 128.358 186.072 127.867C186.072 127.489 186.143 127.171 186.286 126.913C186.428 126.654 186.63 126.442 186.892 126.276C187.154 126.111 187.464 125.98 187.822 125.884C188.18 125.787 188.574 125.713 189.005 125.66C189.433 125.607 189.794 125.56 190.089 125.521C190.387 125.481 190.614 125.418 190.77 125.332C190.926 125.246 191.004 125.106 191.004 124.914V124.735C191.004 124.215 190.848 123.805 190.536 123.507C190.228 123.205 189.784 123.055 189.204 123.055C188.654 123.055 188.205 123.176 187.857 123.418C187.512 123.66 187.27 123.945 187.131 124.273L186.29 123.969C186.463 123.552 186.701 123.219 187.006 122.97C187.311 122.718 187.653 122.538 188.031 122.428C188.408 122.316 188.791 122.259 189.179 122.259C189.471 122.259 189.774 122.297 190.089 122.374C190.407 122.45 190.702 122.582 190.974 122.771C191.246 122.957 191.466 123.217 191.635 123.552C191.804 123.883 191.888 124.304 191.888 124.815V130H191.004V128.792H190.949C190.843 129.017 190.685 129.236 190.477 129.448C190.268 129.66 190.006 129.834 189.691 129.97C189.376 130.106 189.007 130.174 188.582 130.174ZM188.702 129.364C189.172 129.364 189.58 129.259 189.925 129.05C190.269 128.842 190.535 128.565 190.72 128.22C190.909 127.872 191.004 127.489 191.004 127.072V125.968C190.937 126.031 190.826 126.087 190.67 126.137C190.518 126.187 190.341 126.232 190.138 126.271C189.94 126.308 189.741 126.339 189.542 126.366C189.343 126.392 189.164 126.415 189.005 126.435C188.574 126.488 188.206 126.571 187.901 126.684C187.596 126.797 187.363 126.952 187.2 127.151C187.038 127.347 186.957 127.599 186.957 127.907C186.957 128.371 187.122 128.731 187.454 128.986C187.785 129.238 188.201 129.364 188.702 129.364ZM196.992 130.159C196.365 130.159 195.817 129.993 195.346 129.662C194.876 129.33 194.508 128.868 194.243 128.275C193.981 127.682 193.85 126.991 193.85 126.202C193.85 125.416 193.981 124.728 194.243 124.138C194.508 123.545 194.877 123.085 195.351 122.756C195.825 122.425 196.377 122.259 197.007 122.259C197.471 122.259 197.857 122.342 198.165 122.508C198.473 122.67 198.72 122.872 198.906 123.114C199.092 123.356 199.236 123.592 199.338 123.82H199.418V119.818H200.308V130H199.443V128.583H199.338C199.236 128.815 199.09 129.054 198.901 129.299C198.712 129.541 198.462 129.745 198.15 129.911C197.842 130.076 197.456 130.159 196.992 130.159ZM197.096 129.349C197.59 129.349 198.011 129.214 198.359 128.946C198.707 128.674 198.972 128.301 199.154 127.827C199.34 127.35 199.433 126.803 199.433 126.187C199.433 125.577 199.342 125.038 199.159 124.571C198.977 124.1 198.712 123.732 198.364 123.467C198.016 123.199 197.593 123.065 197.096 123.065C196.586 123.065 196.155 123.204 195.804 123.482C195.456 123.757 195.19 124.13 195.008 124.601C194.829 125.071 194.74 125.6 194.74 126.187C194.74 126.78 194.831 127.315 195.013 127.793C195.195 128.27 195.461 128.649 195.809 128.931C196.16 129.21 196.589 129.349 197.096 129.349ZM202.838 130V122.364H203.728V130H202.838ZM203.291 121.051C203.109 121.051 202.953 120.99 202.824 120.867C202.694 120.741 202.63 120.59 202.63 120.415C202.63 120.239 202.694 120.09 202.824 119.967C202.953 119.841 203.109 119.778 203.291 119.778C203.473 119.778 203.629 119.841 203.758 119.967C203.887 120.09 203.952 120.239 203.952 120.415C203.952 120.59 203.887 120.741 203.758 120.867C203.629 120.99 203.473 121.051 203.291 121.051ZM206.069 132.864V122.364H206.929V123.82H207.033C207.139 123.592 207.285 123.358 207.471 123.119C207.656 122.877 207.902 122.674 208.206 122.508C208.515 122.342 208.903 122.259 209.37 122.259C210 122.259 210.55 122.425 211.02 122.756C211.494 123.085 211.862 123.545 212.124 124.138C212.389 124.728 212.522 125.416 212.522 126.202C212.522 126.991 212.389 127.682 212.124 128.275C211.862 128.868 211.494 129.33 211.02 129.662C210.55 129.993 210.003 130.159 209.38 130.159C208.919 130.159 208.533 130.076 208.221 129.911C207.913 129.745 207.663 129.541 207.471 129.299C207.282 129.054 207.136 128.815 207.033 128.583H206.954V132.864H206.069ZM206.944 126.187C206.944 126.803 207.035 127.35 207.217 127.827C207.403 128.301 207.668 128.674 208.013 128.946C208.361 129.214 208.782 129.349 209.275 129.349C209.782 129.349 210.21 129.21 210.558 128.931C210.909 128.649 211.176 128.27 211.358 127.793C211.544 127.315 211.637 126.78 211.637 126.187C211.637 125.6 211.546 125.071 211.363 124.601C211.184 124.13 210.919 123.757 210.568 123.482C210.217 123.204 209.786 123.065 209.275 123.065C208.778 123.065 208.356 123.199 208.008 123.467C207.66 123.732 207.394 124.1 207.212 124.571C207.033 125.038 206.944 125.577 206.944 126.187Z" fill="#999999"/>
</g>
<g filter="url(#filter1_d_1_1968)">
<rect x="280" y="36" width="264" height="112" rx="8" fill="white" shape-rendering="crispEdges"/>
<path d="M280 44C280 39.5817 283.582 36 288 36H376V148H288C283.582 148 280 144.418 280 140V44Z" fill="#E6E1F2"/>
<path d="M308.5 61H347.5V65H308.5V61Z" fill="#1B2073"/>
<path d="M328.103 76.8363C328.081 78.5079 329.622 79.4408 330.783 79.9953C331.976 80.5644 332.376 80.9293 332.372 81.4382C332.363 82.217 331.42 82.5607 330.538 82.5741C328.999 82.5975 328.105 82.1668 327.393 81.841L326.839 84.384C327.553 84.7065 328.874 84.9877 330.245 85C333.461 85 335.565 83.4434 335.577 81.0298C335.589 77.9667 331.255 77.7971 331.285 76.4279C331.295 76.0128 331.699 75.5698 332.585 75.4571C333.023 75.4002 334.233 75.3567 335.604 75.976L336.142 73.5155C335.405 73.2522 334.457 73 333.277 73C330.249 73 328.12 74.5778 328.103 76.8363ZM341.315 73.212C340.728 73.212 340.233 73.5479 340.012 74.0634L335.417 84.8192H338.632L339.271 83.0863H343.199L343.57 84.8192H346.403L343.931 73.212H341.315ZM341.765 76.3476L342.693 80.7062H340.152L341.765 76.3476ZM324.205 73.212L321.672 84.8192H324.735L327.267 73.212H324.205ZM319.674 73.212L316.486 81.1123L315.197 74.3948C315.046 73.645 314.448 73.212 313.784 73.212H308.573L308.5 73.549C309.57 73.7766 310.785 74.1438 311.522 74.5365C311.973 74.7765 312.101 74.9862 312.249 75.5564L314.692 84.8192H317.929L322.891 73.212H319.674Z" fill="#1B2073"/>
<path d="M308.5 93H347.5V97H308.5V93Z" fill="#F7B802"/>
<path d="M296.487 121V119.477L300.527 115.517C300.913 115.127 301.235 114.78 301.493 114.477C301.75 114.174 301.944 113.881 302.072 113.597C302.201 113.312 302.266 113.009 302.266 112.688C302.266 112.32 302.182 112.006 302.016 111.744C301.849 111.479 301.62 111.275 301.328 111.131C301.036 110.987 300.705 110.915 300.334 110.915C299.951 110.915 299.616 110.994 299.328 111.153C299.04 111.309 298.817 111.53 298.658 111.818C298.502 112.106 298.425 112.449 298.425 112.847H296.419C296.419 112.108 296.588 111.466 296.925 110.92C297.262 110.375 297.726 109.953 298.317 109.653C298.911 109.354 299.593 109.205 300.362 109.205C301.143 109.205 301.828 109.35 302.419 109.642C303.01 109.934 303.468 110.333 303.794 110.841C304.124 111.348 304.288 111.928 304.288 112.58C304.288 113.015 304.205 113.443 304.038 113.864C303.872 114.284 303.578 114.75 303.158 115.261C302.741 115.773 302.156 116.392 301.402 117.119L299.396 119.159V119.239H304.464V121H296.487ZM310.601 121.159C309.783 121.159 309.055 121.019 308.419 120.739C307.786 120.458 307.286 120.068 306.919 119.568C306.552 119.068 306.357 118.491 306.334 117.835H308.47C308.489 118.15 308.593 118.424 308.783 118.659C308.972 118.89 309.224 119.07 309.538 119.199C309.853 119.328 310.205 119.392 310.595 119.392C311.012 119.392 311.381 119.32 311.703 119.176C312.025 119.028 312.277 118.824 312.459 118.562C312.641 118.301 312.73 118 312.726 117.659C312.73 117.307 312.639 116.996 312.453 116.727C312.268 116.458 311.999 116.248 311.646 116.097C311.298 115.945 310.877 115.869 310.385 115.869H309.357V114.244H310.385C310.79 114.244 311.144 114.174 311.447 114.034C311.754 113.894 311.995 113.697 312.169 113.443C312.343 113.186 312.429 112.888 312.425 112.551C312.429 112.222 312.355 111.936 312.203 111.693C312.055 111.447 311.845 111.256 311.572 111.119C311.304 110.983 310.987 110.915 310.624 110.915C310.268 110.915 309.938 110.979 309.635 111.108C309.332 111.237 309.088 111.42 308.902 111.659C308.716 111.894 308.618 112.174 308.607 112.5H306.578C306.593 111.848 306.781 111.277 307.141 110.784C307.504 110.288 307.989 109.902 308.595 109.625C309.201 109.345 309.881 109.205 310.635 109.205C311.411 109.205 312.086 109.35 312.658 109.642C313.233 109.93 313.679 110.318 313.993 110.807C314.307 111.295 314.464 111.835 314.464 112.426C314.468 113.081 314.275 113.631 313.885 114.074C313.499 114.517 312.991 114.807 312.362 114.943V115.034C313.18 115.148 313.807 115.451 314.243 115.943C314.682 116.432 314.9 117.04 314.896 117.767C314.896 118.419 314.711 119.002 314.339 119.517C313.972 120.028 313.464 120.43 312.817 120.722C312.173 121.013 311.434 121.159 310.601 121.159ZM323.068 118.818V118.205C323.068 117.754 323.163 117.339 323.352 116.96C323.545 116.581 323.826 116.277 324.193 116.045C324.561 115.814 325.006 115.699 325.528 115.699C326.066 115.699 326.517 115.814 326.881 116.045C327.244 116.273 327.519 116.576 327.705 116.955C327.894 117.333 327.989 117.75 327.989 118.205V118.818C327.989 119.269 327.894 119.684 327.705 120.062C327.515 120.441 327.237 120.746 326.869 120.977C326.506 121.208 326.059 121.324 325.528 121.324C324.998 121.324 324.549 121.208 324.182 120.977C323.814 120.746 323.536 120.441 323.347 120.062C323.161 119.684 323.068 119.269 323.068 118.818ZM324.551 118.205V118.818C324.551 119.117 324.623 119.392 324.767 119.642C324.911 119.892 325.165 120.017 325.528 120.017C325.896 120.017 326.148 119.894 326.284 119.648C326.424 119.398 326.494 119.121 326.494 118.818V118.205C326.494 117.902 326.428 117.625 326.295 117.375C326.163 117.121 325.907 116.994 325.528 116.994C325.172 116.994 324.92 117.121 324.773 117.375C324.625 117.625 324.551 117.902 324.551 118.205ZM317.153 112.159V111.545C317.153 111.091 317.25 110.674 317.443 110.295C317.636 109.917 317.917 109.614 318.284 109.386C318.652 109.155 319.097 109.04 319.619 109.04C320.153 109.04 320.602 109.155 320.966 109.386C321.333 109.614 321.61 109.917 321.795 110.295C321.981 110.674 322.074 111.091 322.074 111.545V112.159C322.074 112.614 321.979 113.03 321.79 113.409C321.604 113.784 321.328 114.085 320.96 114.312C320.593 114.54 320.146 114.653 319.619 114.653C319.085 114.653 318.634 114.54 318.267 114.312C317.903 114.085 317.627 113.782 317.438 113.403C317.248 113.025 317.153 112.61 317.153 112.159ZM318.648 111.545V112.159C318.648 112.462 318.718 112.739 318.858 112.989C319.002 113.235 319.256 113.358 319.619 113.358C319.983 113.358 320.233 113.235 320.369 112.989C320.509 112.739 320.58 112.462 320.58 112.159V111.545C320.58 111.242 320.513 110.966 320.381 110.716C320.248 110.462 319.994 110.335 319.619 110.335C319.259 110.335 319.008 110.462 318.864 110.716C318.72 110.97 318.648 111.246 318.648 111.545ZM317.801 121L325.801 109.364H327.222L319.222 121H317.801ZM341.017 115.182C341.017 116.451 340.777 117.53 340.295 118.42C339.818 119.311 339.167 119.991 338.341 120.46C337.519 120.926 336.595 121.159 335.568 121.159C334.534 121.159 333.606 120.924 332.784 120.455C331.962 119.985 331.313 119.305 330.835 118.415C330.358 117.525 330.119 116.447 330.119 115.182C330.119 113.913 330.358 112.833 330.835 111.943C331.313 111.053 331.962 110.375 332.784 109.909C333.606 109.439 334.534 109.205 335.568 109.205C336.595 109.205 337.519 109.439 338.341 109.909C339.167 110.375 339.818 111.053 340.295 111.943C340.777 112.833 341.017 113.913 341.017 115.182ZM338.523 115.182C338.523 114.36 338.4 113.667 338.153 113.102C337.911 112.538 337.568 112.11 337.125 111.818C336.682 111.527 336.163 111.381 335.568 111.381C334.973 111.381 334.455 111.527 334.011 111.818C333.568 112.11 333.223 112.538 332.977 113.102C332.735 113.667 332.614 114.36 332.614 115.182C332.614 116.004 332.735 116.697 332.977 117.261C333.223 117.826 333.568 118.254 334.011 118.545C334.455 118.837 334.973 118.983 335.568 118.983C336.163 118.983 336.682 118.837 337.125 118.545C337.568 118.254 337.911 117.826 338.153 117.261C338.4 116.697 338.523 116.004 338.523 115.182ZM342.839 121V109.364H350.544V111.392H345.3V114.165H350.033V116.193H345.3V121H342.839ZM352.199 121V109.364H359.903V111.392H354.659V114.165H359.392V116.193H354.659V121H352.199Z" fill="#333333"/>
</g>
</g>
<defs>
<filter id="filter0_d_1_1968" x="-10" y="31" width="284" height="132" filterUnits="userSpaceOnUse" color-interpolation-filters="sRGB">
<feFlood flood-opacity="0" result="BackgroundImageFix"/>
<feColorMatrix in="SourceAlpha" type="matrix" values="0 0 0 0 0 0 0 0 0 0 0 0 0 0 0 0 0 0 127 0" result="hardAlpha"/>
<feOffset dy="5"/>
<feGaussianBlur stdDeviation="5"/>
<feComposite in2="hardAlpha" operator="out"/>
<feColorMatrix type="matrix" values="0 0 0 0 0.34902 0 0 0 0 0.105882 0 0 0 0 0.105882 0 0 0 0.05 0"/>
<feBlend mode="normal" in2="BackgroundImageFix" result="effect1_dropShadow_1_1968"/>
<feBlend mode="normal" in="SourceGraphic" in2="effect1_dropShadow_1_1968" result="shape"/>
</filter>
<filter id="filter1_d_1_1968" x="270" y="31" width="284" height="132" filterUnits="userSpaceOnUse" color-interpolation-filters="sRGB">
<feFlood flood-opacity="0" result="BackgroundImageFix"/>
<feColorMatrix in="SourceAlpha" type="matrix" values="0 0 0 0 0 0 0 0 0 0 0 0 0 0 0 0 0 0 127 0" result="hardAlpha"/>
<feOffset dy="5"/>
<feGaussianBlur stdDeviation="5"/>
<feComposite in2="hardAlpha" operator="out"/>
<feColorMatrix type="matrix" values="0 0 0 0 0.34902 0 0 0 0 0.105882 0 0 0 0 0.105882 0 0 0 0.05 0"/>
<feBlend mode="normal" in2="BackgroundImageFix" result="effect1_dropShadow_1_1968"/>
<feBlend mode="normal" in="SourceGraphic" in2="effect1_dropShadow_1_1968" result="shape"/>
</filter>
<clipPath id="clip0_1_1968">
<rect width="344" height="160" fill="white"/>
</clipPath>
<clipPath id="clip1_1_1968">
<rect width="45" height="34" fill="white" transform="translate(25.5 62)"/>
</clipPath>
</defs>
</svg>
